M48
;GenerationSoftware,Autodesk,EAGLE,9.5.0*%
;CreationDate,2019-09-15T04:52:33Z*%
FMAT,2
ICI,OFF
METRIC,TZ,000.000
T6C0.508
T5C0.813
T4C1.000
T3C1.118
T2C2.800
T1C3.302
%
G90
M71
T1
X35000Y45826
T2
X3500Y52500
X61500Y52500
X61500Y3500
X3500Y3500
T3
X35000Y30840
X32460Y30840
X37540Y30840
T4
X10000Y45270
X51550Y53770
X13450Y51230
X8370Y51230
X8370Y53770
X10910Y51230
X10910Y53770
X13450Y53770
X15990Y51230
X15990Y53770
X18530Y51230
X18530Y53770
X21070Y51230
X21070Y53770
X23610Y51230
X23610Y53770
X26150Y51230
X26150Y53770
X28690Y51230
X28690Y53770
X31230Y51230
X31230Y53770
X33770Y51230
X33770Y53770
X36310Y51230
X36310Y53770
X38850Y51230
X38850Y53770
X41390Y51230
X41390Y53770
X43930Y51230
X43930Y53770
X46470Y51230
X46470Y53770
X49010Y51230
X49010Y53770
X51550Y51230
X54090Y51230
X54090Y53770
X56630Y51230
X56630Y53770
X10000Y42730
T5
X20905Y44000
X19000Y45270
X13730Y35000
X16270Y35000
X19000Y42730
T6
X23000Y39000
X8000Y35000
X24000Y27000
X28000Y44000
X15000Y44000
M30