G04 EAGLE Gerber RS-274X export*
G75*
%MOMM*%
%FSLAX34Y34*%
%LPD*%
%INBottom Copper*%
%IPPOS*%
%AMOC8*
5,1,8,0,0,1.08239X$1,22.5*%
G01*
%ADD10C,0.254000*%
%ADD11R,1.778000X1.778000*%
%ADD12C,1.778000*%
%ADD13C,1.508000*%
%ADD14P,1.429621X8X292.500000*%
%ADD15C,1.320800*%
%ADD16C,1.676400*%
%ADD17C,0.812800*%
%ADD18C,0.304800*%

G36*
X607873Y2553D02*
X607873Y2553D01*
X607970Y2556D01*
X608030Y2573D01*
X608092Y2581D01*
X608182Y2616D01*
X608276Y2643D01*
X608330Y2675D01*
X608387Y2698D01*
X608466Y2755D01*
X608550Y2804D01*
X608594Y2848D01*
X608645Y2884D01*
X608707Y2959D01*
X608776Y3028D01*
X608808Y3082D01*
X608848Y3129D01*
X608889Y3217D01*
X608939Y3301D01*
X608957Y3361D01*
X608983Y3417D01*
X609001Y3513D01*
X609029Y3606D01*
X609031Y3668D01*
X609043Y3729D01*
X609037Y3827D01*
X609040Y3924D01*
X609027Y3985D01*
X609023Y4047D01*
X608993Y4139D01*
X608972Y4235D01*
X608944Y4290D01*
X608925Y4349D01*
X608873Y4432D01*
X608829Y4519D01*
X608788Y4565D01*
X608755Y4618D01*
X608684Y4685D01*
X608620Y4758D01*
X608569Y4793D01*
X608523Y4836D01*
X608438Y4883D01*
X608358Y4938D01*
X608262Y4980D01*
X608245Y4990D01*
X608234Y4992D01*
X608210Y5003D01*
X599509Y8170D01*
X591267Y15086D01*
X585887Y24404D01*
X584019Y35000D01*
X585887Y45596D01*
X591267Y54914D01*
X599509Y61830D01*
X609620Y65510D01*
X620380Y65510D01*
X630491Y61830D01*
X638733Y54914D01*
X644113Y45596D01*
X644940Y40904D01*
X644954Y40858D01*
X644961Y40809D01*
X645001Y40706D01*
X645034Y40600D01*
X645060Y40559D01*
X645078Y40513D01*
X645143Y40424D01*
X645201Y40330D01*
X645236Y40296D01*
X645264Y40256D01*
X645350Y40185D01*
X645429Y40109D01*
X645472Y40084D01*
X645509Y40053D01*
X645609Y40006D01*
X645706Y39951D01*
X645753Y39939D01*
X645797Y39918D01*
X645906Y39897D01*
X646013Y39868D01*
X646062Y39867D01*
X646110Y39858D01*
X646220Y39865D01*
X646331Y39863D01*
X646378Y39875D01*
X646427Y39878D01*
X646532Y39912D01*
X646640Y39938D01*
X646683Y39961D01*
X646729Y39976D01*
X646823Y40035D01*
X646921Y40087D01*
X646957Y40120D01*
X646998Y40146D01*
X647074Y40227D01*
X647156Y40301D01*
X647183Y40342D01*
X647216Y40378D01*
X647269Y40474D01*
X647330Y40567D01*
X647346Y40613D01*
X647370Y40656D01*
X647397Y40763D01*
X647433Y40868D01*
X647437Y40917D01*
X647449Y40964D01*
X647459Y41125D01*
X647459Y518875D01*
X647453Y518924D01*
X647456Y518973D01*
X647433Y519081D01*
X647419Y519191D01*
X647401Y519236D01*
X647392Y519284D01*
X647343Y519384D01*
X647302Y519487D01*
X647274Y519526D01*
X647252Y519570D01*
X647181Y519654D01*
X647116Y519744D01*
X647078Y519775D01*
X647046Y519812D01*
X646956Y519876D01*
X646871Y519947D01*
X646826Y519968D01*
X646786Y519996D01*
X646683Y520035D01*
X646583Y520082D01*
X646535Y520091D01*
X646489Y520109D01*
X646379Y520121D01*
X646271Y520142D01*
X646222Y520139D01*
X646173Y520144D01*
X646064Y520129D01*
X645953Y520122D01*
X645907Y520107D01*
X645858Y520100D01*
X645756Y520058D01*
X645651Y520024D01*
X645609Y519998D01*
X645564Y519980D01*
X645476Y519913D01*
X645382Y519854D01*
X645348Y519818D01*
X645309Y519789D01*
X645240Y519703D01*
X645164Y519622D01*
X645140Y519580D01*
X645110Y519542D01*
X645064Y519441D01*
X645010Y519344D01*
X644998Y519297D01*
X644978Y519252D01*
X644940Y519096D01*
X644113Y514404D01*
X638733Y505086D01*
X630491Y498170D01*
X620380Y494490D01*
X609620Y494490D01*
X599509Y498170D01*
X591267Y505086D01*
X585887Y514404D01*
X584019Y525000D01*
X585887Y535596D01*
X591267Y544914D01*
X599509Y551830D01*
X608210Y554997D01*
X608297Y555042D01*
X608387Y555078D01*
X608438Y555114D01*
X608493Y555143D01*
X608566Y555207D01*
X608645Y555264D01*
X608685Y555312D01*
X608731Y555354D01*
X608785Y555434D01*
X608848Y555509D01*
X608874Y555566D01*
X608909Y555617D01*
X608942Y555709D01*
X608983Y555797D01*
X608995Y555858D01*
X609016Y555917D01*
X609025Y556014D01*
X609043Y556110D01*
X609039Y556172D01*
X609045Y556234D01*
X609029Y556330D01*
X609023Y556427D01*
X609004Y556486D01*
X608994Y556548D01*
X608955Y556637D01*
X608925Y556729D01*
X608892Y556782D01*
X608867Y556839D01*
X608807Y556916D01*
X608755Y556998D01*
X608710Y557041D01*
X608671Y557090D01*
X608594Y557149D01*
X608523Y557216D01*
X608469Y557246D01*
X608420Y557284D01*
X608330Y557323D01*
X608245Y557370D01*
X608185Y557385D01*
X608127Y557410D01*
X608031Y557425D01*
X607937Y557449D01*
X607833Y557456D01*
X607813Y557459D01*
X607802Y557458D01*
X607776Y557459D01*
X42224Y557459D01*
X42127Y557447D01*
X42030Y557444D01*
X41970Y557427D01*
X41908Y557419D01*
X41818Y557384D01*
X41724Y557357D01*
X41670Y557325D01*
X41613Y557302D01*
X41534Y557245D01*
X41450Y557196D01*
X41406Y557152D01*
X41355Y557116D01*
X41293Y557041D01*
X41224Y556972D01*
X41192Y556918D01*
X41152Y556871D01*
X41111Y556783D01*
X41061Y556699D01*
X41043Y556639D01*
X41017Y556583D01*
X40999Y556487D01*
X40971Y556394D01*
X40969Y556332D01*
X40957Y556271D01*
X40963Y556173D01*
X40960Y556076D01*
X40973Y556015D01*
X40977Y555953D01*
X41007Y555861D01*
X41028Y555765D01*
X41056Y555710D01*
X41075Y555651D01*
X41127Y555568D01*
X41171Y555481D01*
X41212Y555435D01*
X41245Y555382D01*
X41316Y555315D01*
X41380Y555242D01*
X41431Y555207D01*
X41477Y555164D01*
X41562Y555117D01*
X41642Y555062D01*
X41738Y555020D01*
X41755Y555010D01*
X41766Y555008D01*
X41790Y554997D01*
X50491Y551830D01*
X58733Y544914D01*
X64113Y535596D01*
X65981Y525000D01*
X64113Y514404D01*
X58733Y505086D01*
X50491Y498170D01*
X40380Y494490D01*
X29620Y494490D01*
X19509Y498170D01*
X11267Y505086D01*
X5887Y514404D01*
X5060Y519096D01*
X5046Y519142D01*
X5039Y519191D01*
X4999Y519294D01*
X4966Y519399D01*
X4940Y519441D01*
X4922Y519486D01*
X4857Y519576D01*
X4799Y519670D01*
X4764Y519704D01*
X4736Y519744D01*
X4650Y519815D01*
X4571Y519891D01*
X4528Y519915D01*
X4491Y519947D01*
X4390Y519994D01*
X4294Y520049D01*
X4247Y520061D01*
X4203Y520082D01*
X4094Y520103D01*
X3987Y520132D01*
X3938Y520133D01*
X3890Y520142D01*
X3780Y520135D01*
X3669Y520137D01*
X3622Y520125D01*
X3573Y520122D01*
X3468Y520088D01*
X3360Y520062D01*
X3317Y520039D01*
X3271Y520024D01*
X3177Y519965D01*
X3079Y519913D01*
X3043Y519880D01*
X3002Y519854D01*
X2926Y519773D01*
X2844Y519699D01*
X2817Y519658D01*
X2784Y519622D01*
X2731Y519526D01*
X2670Y519433D01*
X2654Y519387D01*
X2630Y519344D01*
X2603Y519237D01*
X2567Y519132D01*
X2563Y519083D01*
X2551Y519036D01*
X2541Y518875D01*
X2541Y375000D01*
X2543Y374980D01*
X2547Y374875D01*
X2666Y373668D01*
X2689Y373564D01*
X2704Y373459D01*
X2732Y373379D01*
X2736Y373358D01*
X2744Y373344D01*
X2756Y373307D01*
X3681Y371075D01*
X3685Y371067D01*
X3688Y371058D01*
X3764Y370928D01*
X3838Y370799D01*
X3845Y370792D01*
X3849Y370784D01*
X3956Y370664D01*
X5663Y368956D01*
X5671Y368950D01*
X5677Y368943D01*
X5796Y368853D01*
X5915Y368761D01*
X5923Y368757D01*
X5931Y368751D01*
X6075Y368681D01*
X8307Y367756D01*
X8409Y367728D01*
X8509Y367692D01*
X8592Y367678D01*
X8613Y367672D01*
X8629Y367672D01*
X8668Y367666D01*
X9876Y367547D01*
X9895Y367547D01*
X10000Y367541D01*
X42495Y367541D01*
X47104Y365632D01*
X50632Y362104D01*
X52541Y357495D01*
X52541Y202505D01*
X50632Y197896D01*
X47104Y194368D01*
X42495Y192459D01*
X10000Y192459D01*
X9980Y192457D01*
X9876Y192453D01*
X8668Y192334D01*
X8564Y192311D01*
X8459Y192296D01*
X8379Y192268D01*
X8358Y192264D01*
X8344Y192256D01*
X8307Y192244D01*
X6075Y191319D01*
X6067Y191315D01*
X6058Y191312D01*
X5928Y191236D01*
X5799Y191162D01*
X5792Y191155D01*
X5784Y191151D01*
X5664Y191044D01*
X3956Y189336D01*
X3950Y189329D01*
X3943Y189323D01*
X3853Y189204D01*
X3761Y189085D01*
X3757Y189077D01*
X3751Y189069D01*
X3681Y188925D01*
X2756Y186693D01*
X2728Y186591D01*
X2692Y186491D01*
X2678Y186408D01*
X2672Y186387D01*
X2672Y186371D01*
X2666Y186332D01*
X2547Y185124D01*
X2547Y185105D01*
X2541Y185000D01*
X2541Y41125D01*
X2547Y41076D01*
X2544Y41027D01*
X2567Y40919D01*
X2581Y40809D01*
X2599Y40764D01*
X2608Y40716D01*
X2657Y40616D01*
X2698Y40514D01*
X2726Y40474D01*
X2748Y40430D01*
X2819Y40346D01*
X2884Y40256D01*
X2922Y40225D01*
X2954Y40188D01*
X3044Y40124D01*
X3129Y40053D01*
X3174Y40033D01*
X3214Y40004D01*
X3317Y39965D01*
X3417Y39918D01*
X3465Y39909D01*
X3511Y39891D01*
X3621Y39879D01*
X3729Y39858D01*
X3778Y39861D01*
X3827Y39856D01*
X3936Y39871D01*
X4047Y39878D01*
X4093Y39893D01*
X4142Y39900D01*
X4244Y39942D01*
X4349Y39976D01*
X4391Y40002D01*
X4436Y40021D01*
X4524Y40087D01*
X4618Y40146D01*
X4652Y40182D01*
X4691Y40211D01*
X4760Y40297D01*
X4836Y40378D01*
X4860Y40420D01*
X4890Y40458D01*
X4936Y40559D01*
X4990Y40656D01*
X5002Y40703D01*
X5022Y40748D01*
X5060Y40904D01*
X5887Y45596D01*
X11267Y54914D01*
X19509Y61830D01*
X29620Y65510D01*
X40380Y65510D01*
X50491Y61830D01*
X58733Y54914D01*
X64113Y45596D01*
X65981Y35000D01*
X64113Y24404D01*
X58733Y15086D01*
X50491Y8170D01*
X41790Y5003D01*
X41703Y4958D01*
X41613Y4922D01*
X41562Y4886D01*
X41507Y4857D01*
X41434Y4793D01*
X41355Y4736D01*
X41316Y4688D01*
X41269Y4646D01*
X41215Y4566D01*
X41152Y4491D01*
X41126Y4434D01*
X41091Y4383D01*
X41058Y4291D01*
X41017Y4203D01*
X41005Y4142D01*
X40984Y4083D01*
X40975Y3986D01*
X40957Y3890D01*
X40961Y3828D01*
X40955Y3766D01*
X40971Y3670D01*
X40977Y3573D01*
X40996Y3514D01*
X41006Y3452D01*
X41045Y3363D01*
X41075Y3271D01*
X41108Y3218D01*
X41133Y3161D01*
X41193Y3084D01*
X41245Y3002D01*
X41290Y2959D01*
X41329Y2910D01*
X41406Y2851D01*
X41477Y2784D01*
X41531Y2754D01*
X41580Y2716D01*
X41670Y2677D01*
X41755Y2630D01*
X41815Y2615D01*
X41873Y2590D01*
X41969Y2575D01*
X42063Y2551D01*
X42167Y2544D01*
X42187Y2541D01*
X42198Y2542D01*
X42224Y2541D01*
X607776Y2541D01*
X607873Y2553D01*
G37*
%LPC*%
G36*
X447505Y27459D02*
X447505Y27459D01*
X442896Y29368D01*
X439368Y32896D01*
X437459Y37505D01*
X437459Y192495D01*
X439368Y197104D01*
X442896Y200632D01*
X447505Y202541D01*
X452495Y202541D01*
X457104Y200632D01*
X460632Y197104D01*
X462541Y192495D01*
X462541Y37505D01*
X460632Y32896D01*
X457104Y29368D01*
X452495Y27459D01*
X447505Y27459D01*
G37*
%LPD*%
%LPC*%
G36*
X346656Y432859D02*
X346656Y432859D01*
X340196Y434590D01*
X334404Y437934D01*
X329674Y442664D01*
X326330Y448456D01*
X324599Y454916D01*
X324599Y461604D01*
X326330Y468064D01*
X329674Y473856D01*
X334404Y478586D01*
X340196Y481930D01*
X346656Y483661D01*
X353344Y483661D01*
X359804Y481930D01*
X365596Y478586D01*
X370326Y473856D01*
X373670Y468064D01*
X375401Y461604D01*
X375401Y454916D01*
X373670Y448456D01*
X370326Y442664D01*
X365596Y437934D01*
X359804Y434590D01*
X353344Y432859D01*
X346656Y432859D01*
G37*
%LPD*%
%LPC*%
G36*
X205262Y430855D02*
X205262Y430855D01*
X199905Y436212D01*
X199905Y443788D01*
X204614Y448496D01*
X204674Y448574D01*
X204742Y448646D01*
X204771Y448699D01*
X204808Y448747D01*
X204848Y448838D01*
X204896Y448925D01*
X204911Y448984D01*
X204935Y449039D01*
X204950Y449137D01*
X204975Y449233D01*
X204981Y449333D01*
X204985Y449353D01*
X204983Y449366D01*
X204985Y449394D01*
X204985Y501447D01*
X204982Y501476D01*
X204984Y501505D01*
X204962Y501633D01*
X204945Y501762D01*
X204935Y501790D01*
X204929Y501819D01*
X204876Y501937D01*
X204828Y502058D01*
X204811Y502082D01*
X204799Y502109D01*
X204718Y502210D01*
X204642Y502315D01*
X204619Y502334D01*
X204600Y502357D01*
X204497Y502435D01*
X204397Y502518D01*
X204370Y502531D01*
X204346Y502548D01*
X204228Y502606D01*
X201009Y505825D01*
X199269Y510026D01*
X199269Y514574D01*
X201009Y518775D01*
X204225Y521991D01*
X208426Y523731D01*
X212974Y523731D01*
X217175Y521991D01*
X220391Y518775D01*
X222131Y514574D01*
X222131Y510026D01*
X220391Y505825D01*
X217175Y502609D01*
X213898Y501252D01*
X213873Y501238D01*
X213845Y501229D01*
X213812Y501208D01*
X213790Y501199D01*
X213734Y501159D01*
X213622Y501095D01*
X213601Y501074D01*
X213576Y501058D01*
X213487Y500964D01*
X213394Y500873D01*
X213378Y500848D01*
X213358Y500827D01*
X213295Y500713D01*
X213227Y500602D01*
X213219Y500574D01*
X213204Y500548D01*
X213172Y500422D01*
X213134Y500298D01*
X213132Y500269D01*
X213125Y500240D01*
X213115Y500080D01*
X213115Y449394D01*
X213127Y449295D01*
X213130Y449196D01*
X213147Y449138D01*
X213155Y449078D01*
X213191Y448986D01*
X213219Y448891D01*
X213249Y448839D01*
X213272Y448782D01*
X213330Y448702D01*
X213380Y448617D01*
X213446Y448542D01*
X213458Y448525D01*
X213468Y448517D01*
X213486Y448496D01*
X218195Y443788D01*
X218195Y436212D01*
X212838Y430855D01*
X205262Y430855D01*
G37*
%LPD*%
%LPC*%
G36*
X514065Y6205D02*
X514065Y6205D01*
X514065Y6206D01*
X513873Y6398D01*
X513779Y6471D01*
X513690Y6549D01*
X513654Y6568D01*
X513622Y6593D01*
X513513Y6640D01*
X513407Y6694D01*
X513367Y6703D01*
X513330Y6719D01*
X513213Y6738D01*
X513096Y6764D01*
X513056Y6762D01*
X513016Y6769D01*
X512898Y6758D01*
X512778Y6754D01*
X512740Y6743D01*
X512699Y6739D01*
X512587Y6699D01*
X512473Y6666D01*
X512438Y6645D01*
X512400Y6631D01*
X512302Y6565D01*
X512199Y6504D01*
X512154Y6464D01*
X512137Y6453D01*
X512123Y6438D01*
X512078Y6398D01*
X510775Y5094D01*
X506252Y5094D01*
X504652Y5094D01*
X503559Y6187D01*
X503558Y6188D01*
X503540Y6206D01*
X502607Y7139D01*
X502513Y7212D01*
X502424Y7291D01*
X502388Y7309D01*
X502356Y7334D01*
X502247Y7381D01*
X502141Y7435D01*
X502101Y7444D01*
X502064Y7460D01*
X501946Y7479D01*
X501830Y7505D01*
X501790Y7504D01*
X501750Y7510D01*
X501631Y7499D01*
X501512Y7495D01*
X501474Y7484D01*
X501433Y7480D01*
X501321Y7440D01*
X501207Y7407D01*
X501172Y7387D01*
X501134Y7373D01*
X501035Y7306D01*
X500933Y7246D01*
X500888Y7206D01*
X500871Y7194D01*
X500857Y7179D01*
X500812Y7139D01*
X498767Y5094D01*
X495610Y5094D01*
X493378Y7327D01*
X493378Y12733D01*
X493366Y12831D01*
X493363Y12930D01*
X493346Y12988D01*
X493338Y13048D01*
X493302Y13140D01*
X493274Y13235D01*
X493243Y13287D01*
X493221Y13344D01*
X493163Y13424D01*
X493113Y13509D01*
X493046Y13584D01*
X493034Y13601D01*
X493025Y13609D01*
X493006Y13630D01*
X492824Y13812D01*
X492730Y13885D01*
X492641Y13964D01*
X492605Y13982D01*
X492573Y14007D01*
X492463Y14055D01*
X492357Y14109D01*
X492318Y14118D01*
X492281Y14134D01*
X492163Y14152D01*
X492047Y14178D01*
X492007Y14177D01*
X491967Y14183D01*
X491849Y14172D01*
X491729Y14169D01*
X491690Y14157D01*
X491650Y14154D01*
X491538Y14113D01*
X491424Y14080D01*
X491389Y14060D01*
X491351Y14046D01*
X491252Y13979D01*
X491150Y13919D01*
X491105Y13879D01*
X491088Y13868D01*
X491074Y13852D01*
X491029Y13812D01*
X490847Y13630D01*
X490786Y13552D01*
X490718Y13480D01*
X490689Y13427D01*
X490652Y13379D01*
X490612Y13288D01*
X490565Y13201D01*
X490549Y13143D01*
X490525Y13087D01*
X490510Y12989D01*
X490485Y12893D01*
X490479Y12793D01*
X490476Y12773D01*
X490477Y12761D01*
X490475Y12733D01*
X490475Y7327D01*
X488243Y5094D01*
X485086Y5094D01*
X483041Y7139D01*
X482947Y7212D01*
X482858Y7291D01*
X482822Y7309D01*
X482790Y7334D01*
X482680Y7381D01*
X482574Y7436D01*
X482535Y7444D01*
X482498Y7460D01*
X482380Y7479D01*
X482264Y7505D01*
X482224Y7504D01*
X482184Y7510D01*
X482065Y7499D01*
X481946Y7496D01*
X481907Y7484D01*
X481867Y7480D01*
X481755Y7440D01*
X481641Y7407D01*
X481606Y7387D01*
X481568Y7373D01*
X481469Y7306D01*
X481367Y7246D01*
X481321Y7206D01*
X481305Y7194D01*
X481291Y7179D01*
X481246Y7139D01*
X479201Y5094D01*
X474678Y5094D01*
X473078Y5094D01*
X472516Y5656D01*
X472422Y5729D01*
X472333Y5808D01*
X472297Y5826D01*
X472265Y5851D01*
X472156Y5898D01*
X472050Y5953D01*
X472010Y5961D01*
X471973Y5978D01*
X471855Y5996D01*
X471739Y6022D01*
X471699Y6021D01*
X471659Y6027D01*
X471540Y6016D01*
X471422Y6013D01*
X471383Y6001D01*
X471342Y5998D01*
X471230Y5957D01*
X471116Y5924D01*
X471081Y5904D01*
X471043Y5890D01*
X470945Y5823D01*
X470842Y5763D01*
X470797Y5723D01*
X470780Y5711D01*
X470767Y5696D01*
X470721Y5656D01*
X470159Y5094D01*
X467002Y5094D01*
X466512Y5584D01*
X466418Y5657D01*
X466329Y5736D01*
X466293Y5754D01*
X466261Y5779D01*
X466152Y5826D01*
X466046Y5881D01*
X466007Y5889D01*
X465969Y5905D01*
X465851Y5924D01*
X465736Y5950D01*
X465695Y5949D01*
X465655Y5955D01*
X465537Y5944D01*
X465418Y5941D01*
X465379Y5929D01*
X465339Y5926D01*
X465227Y5885D01*
X465112Y5852D01*
X465077Y5832D01*
X465039Y5818D01*
X464941Y5751D01*
X464838Y5691D01*
X464793Y5651D01*
X464776Y5639D01*
X464763Y5624D01*
X464717Y5584D01*
X464228Y5094D01*
X461071Y5094D01*
X458838Y7327D01*
X458838Y19381D01*
X461071Y21613D01*
X464228Y21613D01*
X464717Y21123D01*
X464812Y21050D01*
X464901Y20972D01*
X464937Y20953D01*
X464969Y20928D01*
X465078Y20881D01*
X465184Y20827D01*
X465223Y20818D01*
X465261Y20802D01*
X465378Y20783D01*
X465494Y20757D01*
X465535Y20759D01*
X465575Y20752D01*
X465693Y20763D01*
X465812Y20767D01*
X465851Y20778D01*
X465891Y20782D01*
X466003Y20822D01*
X466118Y20855D01*
X466153Y20876D01*
X466191Y20890D01*
X466289Y20957D01*
X466392Y21017D01*
X466437Y21057D01*
X466454Y21068D01*
X466467Y21084D01*
X466512Y21123D01*
X467002Y21613D01*
X470159Y21613D01*
X470721Y21051D01*
X470815Y20978D01*
X470905Y20900D01*
X470941Y20881D01*
X470973Y20856D01*
X471082Y20809D01*
X471188Y20755D01*
X471227Y20746D01*
X471264Y20730D01*
X471382Y20711D01*
X471498Y20685D01*
X471538Y20687D01*
X471578Y20680D01*
X471697Y20691D01*
X471816Y20695D01*
X471855Y20706D01*
X471895Y20710D01*
X472007Y20750D01*
X472121Y20783D01*
X472156Y20804D01*
X472194Y20818D01*
X472293Y20884D01*
X472395Y20945D01*
X472441Y20985D01*
X472457Y20996D01*
X472471Y21012D01*
X472516Y21051D01*
X473078Y21613D01*
X475518Y21613D01*
X475519Y21613D01*
X477644Y21613D01*
X479201Y21613D01*
X479763Y21051D01*
X479857Y20979D01*
X479946Y20900D01*
X479982Y20881D01*
X480014Y20856D01*
X480123Y20809D01*
X480229Y20755D01*
X480269Y20746D01*
X480306Y20730D01*
X480424Y20711D01*
X480540Y20685D01*
X480580Y20687D01*
X480620Y20680D01*
X480739Y20691D01*
X480858Y20695D01*
X480896Y20706D01*
X480937Y20710D01*
X481049Y20750D01*
X481163Y20783D01*
X481198Y20804D01*
X481236Y20818D01*
X481334Y20885D01*
X481437Y20945D01*
X481482Y20985D01*
X481499Y20996D01*
X481513Y21012D01*
X481558Y21051D01*
X482120Y21613D01*
X491260Y21613D01*
X491280Y21598D01*
X491390Y21551D01*
X491496Y21496D01*
X491535Y21488D01*
X491572Y21472D01*
X491690Y21453D01*
X491806Y21427D01*
X491846Y21428D01*
X491886Y21422D01*
X492005Y21433D01*
X492124Y21437D01*
X492163Y21448D01*
X492203Y21452D01*
X492315Y21492D01*
X492429Y21525D01*
X492464Y21545D01*
X492502Y21559D01*
X492582Y21613D01*
X501733Y21613D01*
X502295Y21051D01*
X502389Y20978D01*
X502478Y20900D01*
X502514Y20881D01*
X502546Y20856D01*
X502656Y20809D01*
X502762Y20755D01*
X502801Y20746D01*
X502838Y20730D01*
X502956Y20711D01*
X503072Y20685D01*
X503112Y20687D01*
X503152Y20680D01*
X503271Y20691D01*
X503390Y20695D01*
X503429Y20706D01*
X503469Y20710D01*
X503581Y20750D01*
X503695Y20783D01*
X503730Y20804D01*
X503768Y20818D01*
X503867Y20884D01*
X503969Y20945D01*
X504014Y20985D01*
X504031Y20996D01*
X504045Y21012D01*
X504090Y21051D01*
X504652Y21613D01*
X507092Y21613D01*
X509218Y21613D01*
X510775Y21613D01*
X511911Y20477D01*
X512078Y20310D01*
X512172Y20237D01*
X512262Y20158D01*
X512298Y20140D01*
X512329Y20115D01*
X512439Y20068D01*
X512545Y20014D01*
X512584Y20005D01*
X512621Y19989D01*
X512739Y19970D01*
X512855Y19944D01*
X512895Y19945D01*
X512935Y19939D01*
X513054Y19950D01*
X513173Y19954D01*
X513212Y19965D01*
X513252Y19969D01*
X513364Y20009D01*
X513478Y20042D01*
X513513Y20063D01*
X513551Y20076D01*
X513650Y20143D01*
X513752Y20204D01*
X513798Y20243D01*
X513814Y20255D01*
X513828Y20270D01*
X513873Y20310D01*
X514065Y20502D01*
X515177Y21613D01*
X522782Y21613D01*
X525015Y19381D01*
X525015Y7327D01*
X522782Y5094D01*
X516733Y5094D01*
X515177Y5094D01*
X514065Y6205D01*
G37*
%LPD*%
%LPC*%
G36*
X373227Y289095D02*
X373227Y289095D01*
X369213Y290758D01*
X366140Y293831D01*
X364477Y297845D01*
X364477Y318955D01*
X366140Y322969D01*
X369213Y326042D01*
X373227Y327705D01*
X377573Y327705D01*
X381587Y326042D01*
X384660Y322969D01*
X386323Y318955D01*
X386323Y297845D01*
X384660Y293831D01*
X381587Y290758D01*
X377573Y289095D01*
X373227Y289095D01*
G37*
%LPD*%
%LPC*%
G36*
X322427Y289095D02*
X322427Y289095D01*
X318413Y290758D01*
X315340Y293831D01*
X313677Y297845D01*
X313677Y318955D01*
X315340Y322969D01*
X318413Y326042D01*
X322427Y327705D01*
X326773Y327705D01*
X330787Y326042D01*
X333860Y322969D01*
X335523Y318955D01*
X335523Y297845D01*
X333860Y293831D01*
X330787Y290758D01*
X326773Y289095D01*
X322427Y289095D01*
G37*
%LPD*%
%LPC*%
G36*
X90455Y417219D02*
X90455Y417219D01*
X86750Y418754D01*
X83914Y421590D01*
X82379Y425295D01*
X82379Y429305D01*
X83914Y433010D01*
X86750Y435846D01*
X90455Y437381D01*
X109545Y437381D01*
X113250Y435846D01*
X116086Y433010D01*
X117621Y429305D01*
X117621Y425295D01*
X116086Y421590D01*
X113250Y418754D01*
X109545Y417219D01*
X90455Y417219D01*
G37*
%LPD*%
%LPC*%
G36*
X73758Y500869D02*
X73758Y500869D01*
X72269Y502358D01*
X72269Y522242D01*
X73758Y523731D01*
X93642Y523731D01*
X95131Y522242D01*
X95131Y502358D01*
X93642Y500869D01*
X73758Y500869D01*
G37*
%LPD*%
%LPC*%
G36*
X160881Y334251D02*
X160881Y334251D01*
X157520Y335643D01*
X154947Y338216D01*
X153555Y341577D01*
X153555Y358423D01*
X154947Y361784D01*
X157520Y364357D01*
X160881Y365749D01*
X164519Y365749D01*
X167880Y364357D01*
X170453Y361784D01*
X171845Y358423D01*
X171845Y341577D01*
X170453Y338216D01*
X167880Y335643D01*
X164519Y334251D01*
X160881Y334251D01*
G37*
%LPD*%
%LPC*%
G36*
X135481Y334251D02*
X135481Y334251D01*
X132120Y335643D01*
X129547Y338216D01*
X128155Y341577D01*
X128155Y358423D01*
X129547Y361784D01*
X132120Y364357D01*
X135481Y365749D01*
X139119Y365749D01*
X142480Y364357D01*
X145053Y361784D01*
X146445Y358423D01*
X146445Y341577D01*
X145053Y338216D01*
X142480Y335643D01*
X139119Y334251D01*
X135481Y334251D01*
G37*
%LPD*%
%LPC*%
G36*
X310026Y526269D02*
X310026Y526269D01*
X305825Y528009D01*
X302609Y531225D01*
X300869Y535426D01*
X300869Y539974D01*
X302609Y544175D01*
X305825Y547391D01*
X310026Y549131D01*
X314574Y549131D01*
X318775Y547391D01*
X321991Y544175D01*
X323731Y539974D01*
X323731Y535426D01*
X321991Y531225D01*
X318775Y528009D01*
X314574Y526269D01*
X310026Y526269D01*
G37*
%LPD*%
%LPC*%
G36*
X284626Y526269D02*
X284626Y526269D01*
X280425Y528009D01*
X277209Y531225D01*
X275469Y535426D01*
X275469Y539974D01*
X277209Y544175D01*
X280425Y547391D01*
X284626Y549131D01*
X289174Y549131D01*
X293375Y547391D01*
X296591Y544175D01*
X298331Y539974D01*
X298331Y535426D01*
X296591Y531225D01*
X293375Y528009D01*
X289174Y526269D01*
X284626Y526269D01*
G37*
%LPD*%
%LPC*%
G36*
X233826Y526269D02*
X233826Y526269D01*
X229625Y528009D01*
X226409Y531225D01*
X224669Y535426D01*
X224669Y539974D01*
X226409Y544175D01*
X229625Y547391D01*
X233826Y549131D01*
X238374Y549131D01*
X242575Y547391D01*
X245791Y544175D01*
X247531Y539974D01*
X247531Y535426D01*
X245791Y531225D01*
X242575Y528009D01*
X238374Y526269D01*
X233826Y526269D01*
G37*
%LPD*%
%LPC*%
G36*
X208426Y526269D02*
X208426Y526269D01*
X204225Y528009D01*
X201009Y531225D01*
X199269Y535426D01*
X199269Y539974D01*
X201009Y544175D01*
X204225Y547391D01*
X208426Y549131D01*
X212974Y549131D01*
X217175Y547391D01*
X220391Y544175D01*
X222131Y539974D01*
X222131Y535426D01*
X220391Y531225D01*
X217175Y528009D01*
X212974Y526269D01*
X208426Y526269D01*
G37*
%LPD*%
%LPC*%
G36*
X183026Y526269D02*
X183026Y526269D01*
X178825Y528009D01*
X175609Y531225D01*
X173869Y535426D01*
X173869Y539974D01*
X175609Y544175D01*
X178825Y547391D01*
X183026Y549131D01*
X187574Y549131D01*
X191775Y547391D01*
X194991Y544175D01*
X196731Y539974D01*
X196731Y535426D01*
X194991Y531225D01*
X191775Y528009D01*
X187574Y526269D01*
X183026Y526269D01*
G37*
%LPD*%
%LPC*%
G36*
X157626Y526269D02*
X157626Y526269D01*
X153425Y528009D01*
X150209Y531225D01*
X148469Y535426D01*
X148469Y539974D01*
X150209Y544175D01*
X153425Y547391D01*
X157626Y549131D01*
X162174Y549131D01*
X166375Y547391D01*
X169591Y544175D01*
X171331Y539974D01*
X171331Y535426D01*
X169591Y531225D01*
X166375Y528009D01*
X162174Y526269D01*
X157626Y526269D01*
G37*
%LPD*%
%LPC*%
G36*
X106826Y526269D02*
X106826Y526269D01*
X102625Y528009D01*
X99409Y531225D01*
X97669Y535426D01*
X97669Y539974D01*
X99409Y544175D01*
X102625Y547391D01*
X106826Y549131D01*
X111374Y549131D01*
X115575Y547391D01*
X118791Y544175D01*
X120531Y539974D01*
X120531Y535426D01*
X118791Y531225D01*
X115575Y528009D01*
X111374Y526269D01*
X106826Y526269D01*
G37*
%LPD*%
%LPC*%
G36*
X81426Y526269D02*
X81426Y526269D01*
X77225Y528009D01*
X74009Y531225D01*
X72269Y535426D01*
X72269Y539974D01*
X74009Y544175D01*
X77225Y547391D01*
X81426Y549131D01*
X85974Y549131D01*
X90175Y547391D01*
X93391Y544175D01*
X95131Y539974D01*
X95131Y535426D01*
X93391Y531225D01*
X90175Y528009D01*
X85974Y526269D01*
X81426Y526269D01*
G37*
%LPD*%
%LPC*%
G36*
X259226Y526269D02*
X259226Y526269D01*
X255025Y528009D01*
X251809Y531225D01*
X250069Y535426D01*
X250069Y539974D01*
X251809Y544175D01*
X255025Y547391D01*
X259226Y549131D01*
X263774Y549131D01*
X267975Y547391D01*
X271191Y544175D01*
X272931Y539974D01*
X272931Y535426D01*
X271191Y531225D01*
X267975Y528009D01*
X263774Y526269D01*
X259226Y526269D01*
G37*
%LPD*%
%LPC*%
G36*
X538626Y526269D02*
X538626Y526269D01*
X534425Y528009D01*
X531209Y531225D01*
X529469Y535426D01*
X529469Y539974D01*
X531209Y544175D01*
X534425Y547391D01*
X538626Y549131D01*
X543174Y549131D01*
X547375Y547391D01*
X550591Y544175D01*
X552331Y539974D01*
X552331Y535426D01*
X550591Y531225D01*
X547375Y528009D01*
X543174Y526269D01*
X538626Y526269D01*
G37*
%LPD*%
%LPC*%
G36*
X513226Y526269D02*
X513226Y526269D01*
X509025Y528009D01*
X505809Y531225D01*
X504069Y535426D01*
X504069Y539974D01*
X505809Y544175D01*
X509025Y547391D01*
X513226Y549131D01*
X517774Y549131D01*
X521975Y547391D01*
X525191Y544175D01*
X526931Y539974D01*
X526931Y535426D01*
X525191Y531225D01*
X521975Y528009D01*
X517774Y526269D01*
X513226Y526269D01*
G37*
%LPD*%
%LPC*%
G36*
X487826Y526269D02*
X487826Y526269D01*
X483625Y528009D01*
X480409Y531225D01*
X478669Y535426D01*
X478669Y539974D01*
X480409Y544175D01*
X483625Y547391D01*
X487826Y549131D01*
X492374Y549131D01*
X496575Y547391D01*
X499791Y544175D01*
X501531Y539974D01*
X501531Y535426D01*
X499791Y531225D01*
X496575Y528009D01*
X492374Y526269D01*
X487826Y526269D01*
G37*
%LPD*%
%LPC*%
G36*
X462426Y526269D02*
X462426Y526269D01*
X458225Y528009D01*
X455009Y531225D01*
X453269Y535426D01*
X453269Y539974D01*
X455009Y544175D01*
X458225Y547391D01*
X462426Y549131D01*
X466974Y549131D01*
X471175Y547391D01*
X474391Y544175D01*
X476131Y539974D01*
X476131Y535426D01*
X474391Y531225D01*
X471175Y528009D01*
X466974Y526269D01*
X462426Y526269D01*
G37*
%LPD*%
%LPC*%
G36*
X564026Y500869D02*
X564026Y500869D01*
X559825Y502609D01*
X556609Y505825D01*
X554869Y510026D01*
X554869Y514574D01*
X556609Y518775D01*
X559825Y521991D01*
X564026Y523731D01*
X568574Y523731D01*
X572775Y521991D01*
X575991Y518775D01*
X577731Y514574D01*
X577731Y510026D01*
X575991Y505825D01*
X572775Y502609D01*
X568574Y500869D01*
X564026Y500869D01*
G37*
%LPD*%
%LPC*%
G36*
X538626Y500869D02*
X538626Y500869D01*
X534425Y502609D01*
X531209Y505825D01*
X529469Y510026D01*
X529469Y514574D01*
X531209Y518775D01*
X534425Y521991D01*
X538626Y523731D01*
X543174Y523731D01*
X547375Y521991D01*
X550591Y518775D01*
X552331Y514574D01*
X552331Y510026D01*
X550591Y505825D01*
X547375Y502609D01*
X543174Y500869D01*
X538626Y500869D01*
G37*
%LPD*%
%LPC*%
G36*
X513226Y500869D02*
X513226Y500869D01*
X509025Y502609D01*
X505809Y505825D01*
X504069Y510026D01*
X504069Y514574D01*
X505809Y518775D01*
X509025Y521991D01*
X513226Y523731D01*
X517774Y523731D01*
X521975Y521991D01*
X525191Y518775D01*
X526931Y514574D01*
X526931Y510026D01*
X525191Y505825D01*
X521975Y502609D01*
X517774Y500869D01*
X513226Y500869D01*
G37*
%LPD*%
%LPC*%
G36*
X487826Y500869D02*
X487826Y500869D01*
X483625Y502609D01*
X480409Y505825D01*
X478669Y510026D01*
X478669Y514574D01*
X480409Y518775D01*
X483625Y521991D01*
X487826Y523731D01*
X492374Y523731D01*
X496575Y521991D01*
X499791Y518775D01*
X501531Y514574D01*
X501531Y510026D01*
X499791Y505825D01*
X496575Y502609D01*
X492374Y500869D01*
X487826Y500869D01*
G37*
%LPD*%
%LPC*%
G36*
X462426Y500869D02*
X462426Y500869D01*
X458225Y502609D01*
X455009Y505825D01*
X453269Y510026D01*
X453269Y514574D01*
X455009Y518775D01*
X458225Y521991D01*
X462426Y523731D01*
X466974Y523731D01*
X471175Y521991D01*
X474391Y518775D01*
X476131Y514574D01*
X476131Y510026D01*
X474391Y505825D01*
X471175Y502609D01*
X466974Y500869D01*
X462426Y500869D01*
G37*
%LPD*%
%LPC*%
G36*
X437026Y500869D02*
X437026Y500869D01*
X432825Y502609D01*
X429609Y505825D01*
X427869Y510026D01*
X427869Y514574D01*
X429609Y518775D01*
X432825Y521991D01*
X437026Y523731D01*
X441574Y523731D01*
X445775Y521991D01*
X448991Y518775D01*
X450731Y514574D01*
X450731Y510026D01*
X448991Y505825D01*
X445775Y502609D01*
X441574Y500869D01*
X437026Y500869D01*
G37*
%LPD*%
%LPC*%
G36*
X411626Y500869D02*
X411626Y500869D01*
X407425Y502609D01*
X404209Y505825D01*
X402469Y510026D01*
X402469Y514574D01*
X404209Y518775D01*
X407425Y521991D01*
X411626Y523731D01*
X416174Y523731D01*
X420375Y521991D01*
X423591Y518775D01*
X425331Y514574D01*
X425331Y510026D01*
X423591Y505825D01*
X420375Y502609D01*
X416174Y500869D01*
X411626Y500869D01*
G37*
%LPD*%
%LPC*%
G36*
X386226Y500869D02*
X386226Y500869D01*
X382025Y502609D01*
X378809Y505825D01*
X377069Y510026D01*
X377069Y514574D01*
X378809Y518775D01*
X382025Y521991D01*
X386226Y523731D01*
X390774Y523731D01*
X394975Y521991D01*
X398191Y518775D01*
X399931Y514574D01*
X399931Y510026D01*
X398191Y505825D01*
X394975Y502609D01*
X390774Y500869D01*
X386226Y500869D01*
G37*
%LPD*%
%LPC*%
G36*
X360826Y500869D02*
X360826Y500869D01*
X356625Y502609D01*
X353409Y505825D01*
X351669Y510026D01*
X351669Y514574D01*
X353409Y518775D01*
X356625Y521991D01*
X360826Y523731D01*
X365374Y523731D01*
X369575Y521991D01*
X372791Y518775D01*
X374531Y514574D01*
X374531Y510026D01*
X372791Y505825D01*
X369575Y502609D01*
X365374Y500869D01*
X360826Y500869D01*
G37*
%LPD*%
%LPC*%
G36*
X437026Y526269D02*
X437026Y526269D01*
X432825Y528009D01*
X429609Y531225D01*
X427869Y535426D01*
X427869Y539974D01*
X429609Y544175D01*
X432825Y547391D01*
X437026Y549131D01*
X441574Y549131D01*
X445775Y547391D01*
X448991Y544175D01*
X450731Y539974D01*
X450731Y535426D01*
X448991Y531225D01*
X445775Y528009D01*
X441574Y526269D01*
X437026Y526269D01*
G37*
%LPD*%
%LPC*%
G36*
X310026Y500869D02*
X310026Y500869D01*
X305825Y502609D01*
X302609Y505825D01*
X300869Y510026D01*
X300869Y514574D01*
X302609Y518775D01*
X305825Y521991D01*
X310026Y523731D01*
X314574Y523731D01*
X318775Y521991D01*
X321991Y518775D01*
X323731Y514574D01*
X323731Y510026D01*
X321991Y505825D01*
X318775Y502609D01*
X314574Y500869D01*
X310026Y500869D01*
G37*
%LPD*%
%LPC*%
G36*
X284626Y500869D02*
X284626Y500869D01*
X280425Y502609D01*
X277209Y505825D01*
X275469Y510026D01*
X275469Y514574D01*
X277209Y518775D01*
X280425Y521991D01*
X284626Y523731D01*
X289174Y523731D01*
X293375Y521991D01*
X296591Y518775D01*
X298331Y514574D01*
X298331Y510026D01*
X296591Y505825D01*
X293375Y502609D01*
X289174Y500869D01*
X284626Y500869D01*
G37*
%LPD*%
%LPC*%
G36*
X259226Y500869D02*
X259226Y500869D01*
X255025Y502609D01*
X251809Y505825D01*
X250069Y510026D01*
X250069Y514574D01*
X251809Y518775D01*
X255025Y521991D01*
X259226Y523731D01*
X263774Y523731D01*
X267975Y521991D01*
X271191Y518775D01*
X272931Y514574D01*
X272931Y510026D01*
X271191Y505825D01*
X267975Y502609D01*
X263774Y500869D01*
X259226Y500869D01*
G37*
%LPD*%
%LPC*%
G36*
X233826Y500869D02*
X233826Y500869D01*
X229625Y502609D01*
X226409Y505825D01*
X224669Y510026D01*
X224669Y514574D01*
X226409Y518775D01*
X229625Y521991D01*
X233826Y523731D01*
X238374Y523731D01*
X242575Y521991D01*
X245791Y518775D01*
X247531Y514574D01*
X247531Y510026D01*
X245791Y505825D01*
X242575Y502609D01*
X238374Y500869D01*
X233826Y500869D01*
G37*
%LPD*%
%LPC*%
G36*
X183026Y500869D02*
X183026Y500869D01*
X178825Y502609D01*
X175609Y505825D01*
X173869Y510026D01*
X173869Y514574D01*
X175609Y518775D01*
X178825Y521991D01*
X183026Y523731D01*
X187574Y523731D01*
X191775Y521991D01*
X194991Y518775D01*
X196731Y514574D01*
X196731Y510026D01*
X194991Y505825D01*
X191775Y502609D01*
X187574Y500869D01*
X183026Y500869D01*
G37*
%LPD*%
%LPC*%
G36*
X157626Y500869D02*
X157626Y500869D01*
X153425Y502609D01*
X150209Y505825D01*
X148469Y510026D01*
X148469Y514574D01*
X150209Y518775D01*
X153425Y521991D01*
X157626Y523731D01*
X162174Y523731D01*
X166375Y521991D01*
X169591Y518775D01*
X171331Y514574D01*
X171331Y510026D01*
X169591Y505825D01*
X166375Y502609D01*
X162174Y500869D01*
X157626Y500869D01*
G37*
%LPD*%
%LPC*%
G36*
X132226Y500869D02*
X132226Y500869D01*
X128025Y502609D01*
X124809Y505825D01*
X123069Y510026D01*
X123069Y514574D01*
X124809Y518775D01*
X128025Y521991D01*
X132226Y523731D01*
X136774Y523731D01*
X140975Y521991D01*
X144191Y518775D01*
X145931Y514574D01*
X145931Y510026D01*
X144191Y505825D01*
X140975Y502609D01*
X136774Y500869D01*
X132226Y500869D01*
G37*
%LPD*%
%LPC*%
G36*
X106826Y500869D02*
X106826Y500869D01*
X102625Y502609D01*
X99409Y505825D01*
X97669Y510026D01*
X97669Y514574D01*
X99409Y518775D01*
X102625Y521991D01*
X106826Y523731D01*
X111374Y523731D01*
X115575Y521991D01*
X118791Y518775D01*
X120531Y514574D01*
X120531Y510026D01*
X118791Y505825D01*
X115575Y502609D01*
X111374Y500869D01*
X106826Y500869D01*
G37*
%LPD*%
%LPC*%
G36*
X564026Y526269D02*
X564026Y526269D01*
X559825Y528009D01*
X556609Y531225D01*
X554869Y535426D01*
X554869Y539974D01*
X556609Y544175D01*
X559825Y547391D01*
X564026Y549131D01*
X568574Y549131D01*
X572775Y547391D01*
X575991Y544175D01*
X577731Y539974D01*
X577731Y535426D01*
X575991Y531225D01*
X572775Y528009D01*
X568574Y526269D01*
X564026Y526269D01*
G37*
%LPD*%
%LPC*%
G36*
X411626Y526269D02*
X411626Y526269D01*
X407425Y528009D01*
X404209Y531225D01*
X402469Y535426D01*
X402469Y539974D01*
X404209Y544175D01*
X407425Y547391D01*
X411626Y549131D01*
X416174Y549131D01*
X420375Y547391D01*
X423591Y544175D01*
X425331Y539974D01*
X425331Y535426D01*
X423591Y531225D01*
X420375Y528009D01*
X416174Y526269D01*
X411626Y526269D01*
G37*
%LPD*%
%LPC*%
G36*
X386226Y526269D02*
X386226Y526269D01*
X382025Y528009D01*
X378809Y531225D01*
X377069Y535426D01*
X377069Y539974D01*
X378809Y544175D01*
X382025Y547391D01*
X386226Y549131D01*
X390774Y549131D01*
X394975Y547391D01*
X398191Y544175D01*
X399931Y539974D01*
X399931Y535426D01*
X398191Y531225D01*
X394975Y528009D01*
X390774Y526269D01*
X386226Y526269D01*
G37*
%LPD*%
%LPC*%
G36*
X335426Y500869D02*
X335426Y500869D01*
X331225Y502609D01*
X328009Y505825D01*
X326269Y510026D01*
X326269Y514574D01*
X328009Y518775D01*
X331225Y521991D01*
X335426Y523731D01*
X339974Y523731D01*
X344175Y521991D01*
X347391Y518775D01*
X349131Y514574D01*
X349131Y510026D01*
X347391Y505825D01*
X344175Y502609D01*
X339974Y500869D01*
X335426Y500869D01*
G37*
%LPD*%
%LPC*%
G36*
X360826Y526269D02*
X360826Y526269D01*
X356625Y528009D01*
X353409Y531225D01*
X351669Y535426D01*
X351669Y539974D01*
X353409Y544175D01*
X356625Y547391D01*
X360826Y549131D01*
X365374Y549131D01*
X369575Y547391D01*
X372791Y544175D01*
X374531Y539974D01*
X374531Y535426D01*
X372791Y531225D01*
X369575Y528009D01*
X365374Y526269D01*
X360826Y526269D01*
G37*
%LPD*%
%LPC*%
G36*
X335426Y526269D02*
X335426Y526269D01*
X331225Y528009D01*
X328009Y531225D01*
X326269Y535426D01*
X326269Y539974D01*
X328009Y544175D01*
X331225Y547391D01*
X335426Y549131D01*
X339974Y549131D01*
X344175Y547391D01*
X347391Y544175D01*
X349131Y539974D01*
X349131Y535426D01*
X347391Y531225D01*
X344175Y528009D01*
X339974Y526269D01*
X335426Y526269D01*
G37*
%LPD*%
%LPC*%
G36*
X186212Y418155D02*
X186212Y418155D01*
X180855Y423512D01*
X180855Y431088D01*
X186212Y436445D01*
X193788Y436445D01*
X199145Y431088D01*
X199145Y423512D01*
X193788Y418155D01*
X186212Y418155D01*
G37*
%LPD*%
%LPC*%
G36*
X352539Y310939D02*
X352539Y310939D01*
X352539Y327439D01*
X352558Y327436D01*
X354193Y326905D01*
X355725Y326124D01*
X357116Y325113D01*
X358331Y323898D01*
X359342Y322507D01*
X360123Y320975D01*
X360654Y319340D01*
X360923Y317642D01*
X360923Y310939D01*
X352539Y310939D01*
G37*
%LPD*%
%LPC*%
G36*
X352539Y305861D02*
X352539Y305861D01*
X360923Y305861D01*
X360923Y299158D01*
X360654Y297460D01*
X360123Y295825D01*
X359342Y294293D01*
X358331Y292902D01*
X357116Y291687D01*
X355725Y290676D01*
X354193Y289895D01*
X352558Y289364D01*
X352539Y289361D01*
X352539Y305861D01*
G37*
%LPD*%
%LPC*%
G36*
X339077Y310939D02*
X339077Y310939D01*
X339077Y317642D01*
X339346Y319340D01*
X339877Y320975D01*
X340658Y322507D01*
X341669Y323898D01*
X342884Y325113D01*
X344275Y326124D01*
X345807Y326905D01*
X347442Y327436D01*
X347461Y327439D01*
X347461Y310939D01*
X339077Y310939D01*
G37*
%LPD*%
%LPC*%
G36*
X347442Y289364D02*
X347442Y289364D01*
X345807Y289895D01*
X344275Y290676D01*
X342884Y291687D01*
X341669Y292902D01*
X340658Y294293D01*
X339877Y295825D01*
X339346Y297460D01*
X339077Y299158D01*
X339077Y305861D01*
X347461Y305861D01*
X347461Y289361D01*
X347442Y289364D01*
G37*
%LPD*%
%LPC*%
G36*
X102499Y455199D02*
X102499Y455199D01*
X102499Y462781D01*
X108333Y462781D01*
X109901Y462533D01*
X111410Y462042D01*
X112823Y461322D01*
X114107Y460389D01*
X115229Y459267D01*
X116162Y457983D01*
X116882Y456570D01*
X117327Y455199D01*
X102499Y455199D01*
G37*
%LPD*%
%LPC*%
G36*
X82673Y455199D02*
X82673Y455199D01*
X83118Y456570D01*
X83838Y457983D01*
X84771Y459267D01*
X85893Y460389D01*
X87177Y461322D01*
X88590Y462042D01*
X90099Y462533D01*
X91667Y462781D01*
X97501Y462781D01*
X97501Y455199D01*
X82673Y455199D01*
G37*
%LPD*%
%LPC*%
G36*
X102499Y442619D02*
X102499Y442619D01*
X102499Y450201D01*
X117327Y450201D01*
X116882Y448830D01*
X116162Y447417D01*
X115229Y446133D01*
X114107Y445011D01*
X112823Y444078D01*
X111410Y443358D01*
X109901Y442867D01*
X108333Y442619D01*
X102499Y442619D01*
G37*
%LPD*%
%LPC*%
G36*
X91667Y442619D02*
X91667Y442619D01*
X90099Y442867D01*
X88590Y443358D01*
X87177Y444078D01*
X85893Y445011D01*
X84771Y446133D01*
X83838Y447417D01*
X83118Y448830D01*
X82673Y450201D01*
X97501Y450201D01*
X97501Y442619D01*
X91667Y442619D01*
G37*
%LPD*%
%LPC*%
G36*
X136999Y540199D02*
X136999Y540199D01*
X136999Y548877D01*
X137177Y548849D01*
X138888Y548293D01*
X140491Y547477D01*
X141947Y546419D01*
X143219Y545147D01*
X144277Y543691D01*
X145093Y542088D01*
X145649Y540377D01*
X145677Y540199D01*
X136999Y540199D01*
G37*
%LPD*%
%LPC*%
G36*
X123323Y540199D02*
X123323Y540199D01*
X123351Y540377D01*
X123907Y542088D01*
X124723Y543691D01*
X125781Y545147D01*
X127053Y546419D01*
X128509Y547477D01*
X130112Y548293D01*
X131823Y548849D01*
X132001Y548877D01*
X132001Y540199D01*
X123323Y540199D01*
G37*
%LPD*%
%LPC*%
G36*
X136999Y535201D02*
X136999Y535201D01*
X145677Y535201D01*
X145649Y535023D01*
X145093Y533312D01*
X144277Y531709D01*
X143219Y530253D01*
X141947Y528981D01*
X140491Y527923D01*
X138888Y527107D01*
X137177Y526551D01*
X136999Y526523D01*
X136999Y535201D01*
G37*
%LPD*%
%LPC*%
G36*
X131823Y526551D02*
X131823Y526551D01*
X130112Y527107D01*
X128509Y527923D01*
X127053Y528981D01*
X125781Y530253D01*
X124723Y531709D01*
X123907Y533312D01*
X123351Y535023D01*
X123323Y535201D01*
X132001Y535201D01*
X132001Y526523D01*
X131823Y526551D01*
G37*
%LPD*%
%LPC*%
G36*
X192031Y454731D02*
X192031Y454731D01*
X192031Y461845D01*
X193788Y461845D01*
X199145Y456488D01*
X199145Y454731D01*
X192031Y454731D01*
G37*
%LPD*%
%LPC*%
G36*
X180855Y454731D02*
X180855Y454731D01*
X180855Y456488D01*
X186212Y461845D01*
X187969Y461845D01*
X187969Y454731D01*
X180855Y454731D01*
G37*
%LPD*%
%LPC*%
G36*
X192031Y443555D02*
X192031Y443555D01*
X192031Y450669D01*
X199145Y450669D01*
X199145Y448912D01*
X193788Y443555D01*
X192031Y443555D01*
G37*
%LPD*%
%LPC*%
G36*
X186212Y443555D02*
X186212Y443555D01*
X180855Y448912D01*
X180855Y450669D01*
X187969Y450669D01*
X187969Y443555D01*
X186212Y443555D01*
G37*
%LPD*%
%LPC*%
G36*
X349999Y308399D02*
X349999Y308399D01*
X349999Y308401D01*
X350001Y308401D01*
X350001Y308399D01*
X349999Y308399D01*
G37*
%LPD*%
D10*
X521204Y8905D02*
X521204Y17803D01*
X516755Y17803D01*
X515272Y16320D01*
X515272Y14837D01*
X516755Y13354D01*
X515272Y11871D01*
X515272Y10388D01*
X516755Y8905D01*
X521204Y8905D01*
X521204Y13354D02*
X516755Y13354D01*
X509196Y17803D02*
X506230Y17803D01*
X509196Y17803D02*
X510679Y16320D01*
X510679Y10388D01*
X509196Y8905D01*
X506230Y8905D01*
X504747Y10388D01*
X504747Y16320D01*
X506230Y17803D01*
X497189Y17803D02*
X497189Y8905D01*
X500155Y17803D02*
X494223Y17803D01*
X486664Y17803D02*
X486664Y8905D01*
X489630Y17803D02*
X483698Y17803D01*
X477623Y17803D02*
X474657Y17803D01*
X477623Y17803D02*
X479105Y16320D01*
X479105Y10388D01*
X477623Y8905D01*
X474657Y8905D01*
X473174Y10388D01*
X473174Y16320D01*
X474657Y17803D01*
X468581Y17803D02*
X468581Y8905D01*
X465615Y14837D02*
X468581Y17803D01*
X465615Y14837D02*
X462649Y17803D01*
X462649Y8905D01*
D11*
X83700Y512300D03*
D12*
X83700Y537700D03*
X109100Y512300D03*
X109100Y537700D03*
X134500Y512300D03*
X134500Y537700D03*
X159900Y512300D03*
X159900Y537700D03*
X185300Y512300D03*
X185300Y537700D03*
X210700Y512300D03*
X210700Y537700D03*
X236100Y512300D03*
X236100Y537700D03*
X261500Y512300D03*
X261500Y537700D03*
X286900Y512300D03*
X286900Y537700D03*
X312300Y512300D03*
X312300Y537700D03*
X337700Y512300D03*
X337700Y537700D03*
X363100Y512300D03*
X363100Y537700D03*
X388500Y512300D03*
X388500Y537700D03*
X413900Y512300D03*
X413900Y537700D03*
X439300Y512300D03*
X439300Y537700D03*
X464700Y512300D03*
X464700Y537700D03*
X490100Y512300D03*
X490100Y537700D03*
X515500Y512300D03*
X515500Y537700D03*
X540900Y512300D03*
X540900Y537700D03*
X566300Y512300D03*
X566300Y537700D03*
D13*
X107540Y427300D02*
X92460Y427300D01*
X92460Y452700D02*
X107540Y452700D01*
D14*
X190000Y427300D03*
X209050Y440000D03*
X190000Y452700D03*
D15*
X137300Y356604D02*
X137300Y343396D01*
X162700Y343396D02*
X162700Y356604D01*
D16*
X324600Y316782D02*
X324600Y300018D01*
X350000Y300018D02*
X350000Y316782D01*
X375400Y316782D02*
X375400Y300018D01*
D17*
X240000Y270000D03*
X230000Y390000D03*
X80000Y350000D03*
X150000Y440000D03*
X280000Y440000D03*
D18*
X209050Y440000D02*
X209050Y510650D01*
X210700Y512300D01*
M02*
