G04 EAGLE Gerber RS-274X export*
G75*
%MOMM*%
%FSLAX34Y34*%
%LPD*%
%INSilkscreen Top*%
%IPPOS*%
%AMOC8*
5,1,8,0,0,1.08239X$1,22.5*%
G01*
%ADD10C,0.152400*%
%ADD11C,0.076200*%
%ADD12C,0.127000*%
%ADD13C,0.101600*%
%ADD14C,0.254000*%
%ADD15C,0.015238*%
%ADD16C,0.050800*%
%ADD17R,0.762000X0.635000*%
%ADD18R,1.270000X2.794000*%
%ADD19C,0.177800*%


D10*
X101609Y170372D02*
X90762Y170372D01*
X90762Y154102D01*
X101609Y154102D01*
X96185Y162237D02*
X90762Y162237D01*
X107134Y154102D02*
X107134Y170372D01*
X112557Y164949D01*
X117980Y170372D01*
X117980Y154102D01*
X123505Y154102D02*
X123505Y170372D01*
X128928Y164949D01*
X134352Y170372D01*
X134352Y154102D01*
X139877Y170372D02*
X150723Y170372D01*
X139877Y170372D02*
X139877Y154102D01*
X150723Y154102D01*
X145300Y162237D02*
X139877Y162237D01*
X161672Y154102D02*
X161672Y170372D01*
X167095Y170372D02*
X156248Y170372D01*
X178043Y170372D02*
X178043Y154102D01*
X172620Y170372D02*
X183466Y170372D01*
X205363Y170372D02*
X205363Y154102D01*
X205363Y162237D02*
X216210Y162237D01*
X216210Y170372D02*
X216210Y154102D01*
X221735Y154102D02*
X221735Y164949D01*
X227158Y170372D01*
X232581Y164949D01*
X232581Y154102D01*
X232581Y162237D02*
X221735Y162237D01*
X238106Y154102D02*
X238106Y170372D01*
X246241Y170372D01*
X248953Y167660D01*
X248953Y162237D01*
X246241Y159525D01*
X238106Y159525D01*
X243529Y159525D02*
X248953Y154102D01*
X259901Y154102D02*
X259901Y170372D01*
X254478Y170372D02*
X265324Y170372D01*
X90762Y143702D02*
X90762Y127432D01*
X90762Y143702D02*
X98897Y143702D01*
X101609Y140990D01*
X101609Y135567D01*
X98897Y132855D01*
X90762Y132855D01*
X96185Y132855D02*
X101609Y127432D01*
X107134Y127432D02*
X107134Y143702D01*
X115269Y143702D01*
X117980Y140990D01*
X117980Y135567D01*
X115269Y132855D01*
X107134Y132855D01*
X123505Y127432D02*
X128928Y127432D01*
X126217Y127432D02*
X126217Y143702D01*
X128928Y143702D02*
X123505Y143702D01*
X158926Y143702D02*
X161638Y140990D01*
X158926Y143702D02*
X153503Y143702D01*
X150791Y140990D01*
X150791Y130144D01*
X153503Y127432D01*
X158926Y127432D01*
X161638Y130144D01*
X161638Y135567D01*
X156214Y135567D01*
X167163Y143702D02*
X178009Y143702D01*
X167163Y143702D02*
X167163Y127432D01*
X178009Y127432D01*
X172586Y135567D02*
X167163Y135567D01*
X183534Y127432D02*
X183534Y143702D01*
X194381Y127432D01*
X194381Y143702D01*
X205329Y143702D02*
X205329Y127432D01*
X199906Y143702D02*
X210752Y143702D01*
X216277Y143702D02*
X216277Y127432D01*
X227124Y127432D01*
X232649Y143702D02*
X243495Y143702D01*
X232649Y143702D02*
X232649Y127432D01*
X243495Y127432D01*
X238072Y135567D02*
X232649Y135567D01*
X265392Y138279D02*
X265392Y127432D01*
X265392Y138279D02*
X270815Y143702D01*
X276239Y138279D01*
X276239Y127432D01*
X276239Y135567D02*
X265392Y135567D01*
X281764Y143702D02*
X281764Y127432D01*
X292610Y127432D01*
X298135Y127432D02*
X298135Y138279D01*
X303558Y143702D01*
X308982Y138279D01*
X308982Y127432D01*
X308982Y135567D02*
X298135Y135567D01*
X314507Y127432D02*
X314507Y143702D01*
X322642Y143702D01*
X325353Y140990D01*
X325353Y135567D01*
X322642Y132855D01*
X314507Y132855D01*
X319930Y132855D02*
X325353Y127432D01*
X330878Y127432D02*
X330878Y143702D01*
X336302Y138279D01*
X341725Y143702D01*
X341725Y127432D01*
X363621Y127432D02*
X363621Y143702D01*
X363621Y135567D02*
X374468Y135567D01*
X374468Y143702D02*
X374468Y127432D01*
X379993Y127432D02*
X379993Y138279D01*
X385416Y143702D01*
X390840Y138279D01*
X390840Y127432D01*
X390840Y135567D02*
X379993Y135567D01*
X401788Y127432D02*
X401788Y143702D01*
X396365Y143702D02*
X407211Y143702D01*
X101609Y100762D02*
X90762Y100762D01*
X101609Y111609D01*
X101609Y114320D01*
X98897Y117032D01*
X93474Y117032D01*
X90762Y114320D01*
X107134Y114320D02*
X107134Y103474D01*
X107134Y114320D02*
X109845Y117032D01*
X115269Y117032D01*
X117980Y114320D01*
X117980Y103474D01*
X115269Y100762D01*
X109845Y100762D01*
X107134Y103474D01*
X117980Y114320D01*
X123505Y111609D02*
X128928Y117032D01*
X128928Y100762D01*
X123505Y100762D02*
X134352Y100762D01*
X139877Y103474D02*
X142588Y100762D01*
X148012Y100762D01*
X150723Y103474D01*
X150723Y114320D01*
X148012Y117032D01*
X142588Y117032D01*
X139877Y114320D01*
X139877Y111609D01*
X142588Y108897D01*
X150723Y108897D01*
D11*
X96545Y478086D02*
X95004Y479627D01*
X91922Y479627D01*
X90381Y478086D01*
X90381Y471922D01*
X91922Y470381D01*
X95004Y470381D01*
X96545Y471922D01*
X96545Y475004D01*
X93463Y475004D01*
X99589Y470381D02*
X99589Y479627D01*
X105753Y470381D01*
X105753Y479627D01*
X108797Y479627D02*
X108797Y470381D01*
X113420Y470381D01*
X114961Y471922D01*
X114961Y478086D01*
X113420Y479627D01*
X108797Y479627D01*
X183455Y320381D02*
X189619Y320381D01*
X183455Y320381D02*
X180373Y323463D01*
X183455Y326545D01*
X189619Y326545D01*
X184996Y326545D02*
X184996Y320381D01*
X189619Y329589D02*
X180373Y329589D01*
X189619Y335753D01*
X180373Y335753D01*
X180373Y340338D02*
X180373Y343420D01*
X180373Y340338D02*
X181914Y338797D01*
X188078Y338797D01*
X189619Y340338D01*
X189619Y343420D01*
X188078Y344961D01*
X181914Y344961D01*
X180373Y343420D01*
X180373Y348005D02*
X189619Y348005D01*
X189619Y352627D01*
X188078Y354168D01*
X181914Y354168D01*
X180373Y352627D01*
X180373Y348005D01*
X180373Y357212D02*
X180373Y363376D01*
X180373Y357212D02*
X189619Y357212D01*
X189619Y363376D01*
X184996Y360294D02*
X184996Y357212D01*
X111914Y326545D02*
X110373Y325004D01*
X110373Y321922D01*
X111914Y320381D01*
X118078Y320381D01*
X119619Y321922D01*
X119619Y325004D01*
X118078Y326545D01*
X119619Y329589D02*
X113455Y329589D01*
X110373Y332671D01*
X113455Y335753D01*
X119619Y335753D01*
X114996Y335753D02*
X114996Y329589D01*
X119619Y341879D02*
X110373Y341879D01*
X110373Y338797D02*
X110373Y344961D01*
X110373Y348005D02*
X119619Y348005D01*
X114996Y348005D02*
X114996Y354168D01*
X110373Y354168D02*
X119619Y354168D01*
X110373Y358753D02*
X110373Y361835D01*
X110373Y358753D02*
X111914Y357212D01*
X118078Y357212D01*
X119619Y358753D01*
X119619Y361835D01*
X118078Y363376D01*
X111914Y363376D01*
X110373Y361835D01*
X110373Y366420D02*
X119619Y366420D01*
X119619Y371043D01*
X118078Y372584D01*
X111914Y372584D01*
X110373Y371043D01*
X110373Y366420D01*
X110373Y375628D02*
X110373Y381792D01*
X110373Y375628D02*
X119619Y375628D01*
X119619Y381792D01*
X114996Y378710D02*
X114996Y375628D01*
D12*
X71000Y525000D02*
X71000Y550400D01*
X71000Y525000D02*
X71000Y499600D01*
X80525Y499600D01*
X86875Y499600D01*
X96400Y499600D01*
X579000Y499600D01*
X579000Y550400D01*
X71000Y550400D01*
X71000Y525000D02*
X96400Y525000D01*
X96400Y499600D01*
X80525Y499600D02*
X80525Y496425D01*
X86875Y496425D01*
X86875Y499600D01*
D13*
X84084Y493385D02*
X81033Y490334D01*
X84084Y493385D02*
X84084Y484233D01*
X87134Y484233D02*
X81033Y484233D01*
D14*
X68250Y465400D02*
X68250Y414600D01*
X68250Y465400D02*
X87300Y465400D01*
X131750Y465400D01*
X131750Y414600D01*
X87300Y414600D01*
X68250Y414600D01*
X87300Y414600D02*
X87300Y465400D01*
D13*
X71209Y398608D02*
X65108Y398608D01*
X71209Y404709D01*
X71209Y406235D01*
X69684Y407760D01*
X66633Y407760D01*
X65108Y406235D01*
X79039Y407760D02*
X79039Y398608D01*
X74463Y403184D02*
X79039Y407760D01*
X80564Y403184D02*
X74463Y403184D01*
X83818Y401659D02*
X83818Y407760D01*
X83818Y401659D02*
X86869Y398608D01*
X89920Y401659D01*
X89920Y407760D01*
X93174Y397083D02*
X99275Y397083D01*
X108630Y406235D02*
X107105Y407760D01*
X104054Y407760D01*
X102529Y406235D01*
X102529Y404709D01*
X104054Y403184D01*
X107105Y403184D01*
X108630Y401659D01*
X108630Y400133D01*
X107105Y398608D01*
X104054Y398608D01*
X102529Y400133D01*
X111884Y400133D02*
X111884Y407760D01*
X111884Y400133D02*
X113409Y398608D01*
X116460Y398608D01*
X117985Y400133D01*
X117985Y407760D01*
X121239Y407760D02*
X121239Y398608D01*
X121239Y407760D02*
X125815Y407760D01*
X127340Y406235D01*
X127340Y403184D01*
X125815Y401659D01*
X121239Y401659D01*
X130594Y398608D02*
X130594Y407760D01*
X135170Y407760D01*
X136696Y406235D01*
X136696Y403184D01*
X135170Y401659D01*
X130594Y401659D01*
X139950Y398608D02*
X139950Y407760D01*
X139950Y398608D02*
X146051Y398608D01*
X149305Y406235D02*
X149305Y407760D01*
X149305Y406235D02*
X152355Y403184D01*
X155406Y406235D01*
X155406Y407760D01*
X152355Y403184D02*
X152355Y398608D01*
D15*
X216117Y448137D02*
X214806Y447733D01*
X214807Y447733D02*
X214610Y448338D01*
X214399Y448938D01*
X214173Y449532D01*
X213932Y450120D01*
X213677Y450703D01*
X213408Y451279D01*
X213125Y451849D01*
X212828Y452411D01*
X212518Y452966D01*
X212194Y453513D01*
X211857Y454052D01*
X211506Y454582D01*
X211143Y455104D01*
X210767Y455617D01*
X210379Y456121D01*
X209978Y456614D01*
X209566Y457098D01*
X209142Y457572D01*
X208706Y458035D01*
X208259Y458487D01*
X207801Y458928D01*
X207333Y459358D01*
X206854Y459777D01*
X206365Y460183D01*
X205866Y460577D01*
X205358Y460960D01*
X204840Y461329D01*
X204314Y461686D01*
X203779Y462030D01*
X203236Y462360D01*
X202685Y462677D01*
X202126Y462981D01*
X201560Y463271D01*
X200988Y463547D01*
X200408Y463808D01*
X199822Y464056D01*
X199231Y464289D01*
X198634Y464508D01*
X198032Y464712D01*
X197425Y464901D01*
X196813Y465075D01*
X196197Y465234D01*
X195578Y465378D01*
X194955Y465507D01*
X194330Y465621D01*
X193702Y465719D01*
X193071Y465802D01*
X192439Y465869D01*
X191805Y465921D01*
X191171Y465958D01*
X190535Y465978D01*
X189899Y465984D01*
X189263Y465974D01*
X188628Y465948D01*
X187994Y465906D01*
X187360Y465850D01*
X186729Y465777D01*
X186099Y465689D01*
X185472Y465586D01*
X184847Y465468D01*
X184225Y465334D01*
X183607Y465185D01*
X182993Y465021D01*
X182383Y464842D01*
X181777Y464649D01*
X181176Y464440D01*
X180581Y464217D01*
X179991Y463979D01*
X179408Y463727D01*
X178830Y463461D01*
X178259Y463180D01*
X177696Y462886D01*
X177140Y462578D01*
X176591Y462257D01*
X176050Y461922D01*
X175518Y461574D01*
X174995Y461213D01*
X174480Y460840D01*
X173975Y460454D01*
X173126Y461531D01*
X173125Y461531D01*
X173657Y461938D01*
X174199Y462331D01*
X174750Y462711D01*
X175311Y463078D01*
X175880Y463430D01*
X176458Y463769D01*
X177043Y464093D01*
X177637Y464403D01*
X178238Y464698D01*
X178846Y464979D01*
X179460Y465244D01*
X180081Y465494D01*
X180708Y465730D01*
X181340Y465949D01*
X181978Y466153D01*
X182620Y466342D01*
X183267Y466515D01*
X183918Y466671D01*
X184573Y466812D01*
X185230Y466937D01*
X185891Y467046D01*
X186554Y467138D01*
X187219Y467214D01*
X187886Y467274D01*
X188554Y467318D01*
X189223Y467345D01*
X189893Y467356D01*
X190562Y467350D01*
X191231Y467328D01*
X191900Y467290D01*
X192567Y467235D01*
X193233Y467164D01*
X193897Y467077D01*
X194558Y466974D01*
X195217Y466854D01*
X195872Y466718D01*
X196524Y466567D01*
X197173Y466399D01*
X197816Y466216D01*
X198456Y466016D01*
X199090Y465802D01*
X199719Y465571D01*
X200341Y465326D01*
X200958Y465065D01*
X201568Y464790D01*
X202171Y464499D01*
X202767Y464194D01*
X203356Y463874D01*
X203936Y463540D01*
X204508Y463192D01*
X205071Y462830D01*
X205625Y462455D01*
X206170Y462065D01*
X206705Y461663D01*
X207230Y461248D01*
X207745Y460820D01*
X208249Y460379D01*
X208742Y459927D01*
X209225Y459462D01*
X209695Y458986D01*
X210154Y458498D01*
X210600Y457999D01*
X211035Y457490D01*
X211456Y456970D01*
X211865Y456440D01*
X212261Y455900D01*
X212643Y455350D01*
X213012Y454791D01*
X213367Y454224D01*
X213709Y453648D01*
X214035Y453063D01*
X214348Y452471D01*
X214646Y451872D01*
X214929Y451265D01*
X215197Y450652D01*
X215450Y450032D01*
X215688Y449406D01*
X215911Y448774D01*
X216118Y448138D01*
X215981Y448096D01*
X215775Y448729D01*
X215554Y449357D01*
X215317Y449980D01*
X215065Y450596D01*
X214798Y451206D01*
X214517Y451810D01*
X214220Y452406D01*
X213910Y452995D01*
X213584Y453577D01*
X213245Y454150D01*
X212892Y454714D01*
X212525Y455270D01*
X212145Y455817D01*
X211751Y456354D01*
X211344Y456881D01*
X210925Y457399D01*
X210493Y457905D01*
X210048Y458401D01*
X209592Y458887D01*
X209124Y459360D01*
X208644Y459823D01*
X208154Y460273D01*
X207652Y460711D01*
X207140Y461137D01*
X206618Y461550D01*
X206085Y461950D01*
X205543Y462337D01*
X204992Y462711D01*
X204432Y463071D01*
X203863Y463417D01*
X203286Y463749D01*
X202700Y464068D01*
X202108Y464371D01*
X201508Y464660D01*
X200901Y464934D01*
X200287Y465194D01*
X199668Y465438D01*
X199042Y465667D01*
X198411Y465880D01*
X197776Y466078D01*
X197135Y466261D01*
X196490Y466428D01*
X195842Y466579D01*
X195189Y466714D01*
X194534Y466833D01*
X193876Y466936D01*
X193216Y467022D01*
X192554Y467093D01*
X191890Y467147D01*
X191225Y467185D01*
X190559Y467207D01*
X189893Y467213D01*
X189227Y467202D01*
X188562Y467175D01*
X187897Y467132D01*
X187234Y467072D01*
X186572Y466996D01*
X185913Y466904D01*
X185256Y466796D01*
X184601Y466672D01*
X183950Y466532D01*
X183303Y466376D01*
X182659Y466204D01*
X182020Y466017D01*
X181386Y465814D01*
X180757Y465595D01*
X180133Y465361D01*
X179516Y465112D01*
X178904Y464848D01*
X178299Y464569D01*
X177702Y464275D01*
X177111Y463967D01*
X176529Y463645D01*
X175954Y463308D01*
X175388Y462957D01*
X174830Y462593D01*
X174282Y462215D01*
X173743Y461823D01*
X173214Y461419D01*
X173302Y461307D01*
X173829Y461709D01*
X174365Y462098D01*
X174910Y462474D01*
X175465Y462837D01*
X176028Y463186D01*
X176600Y463521D01*
X177179Y463841D01*
X177767Y464148D01*
X178361Y464440D01*
X178963Y464718D01*
X179571Y464980D01*
X180185Y465228D01*
X180806Y465461D01*
X181431Y465678D01*
X182062Y465880D01*
X182698Y466067D01*
X183338Y466237D01*
X183982Y466393D01*
X184630Y466532D01*
X185281Y466655D01*
X185934Y466763D01*
X186591Y466854D01*
X187249Y466930D01*
X187909Y466989D01*
X188570Y467032D01*
X189232Y467059D01*
X189894Y467070D01*
X190556Y467064D01*
X191219Y467043D01*
X191880Y467005D01*
X192540Y466951D01*
X193199Y466880D01*
X193856Y466794D01*
X194510Y466692D01*
X195162Y466573D01*
X195811Y466439D01*
X196456Y466289D01*
X197098Y466123D01*
X197735Y465941D01*
X198367Y465744D01*
X198995Y465532D01*
X199617Y465304D01*
X200233Y465061D01*
X200843Y464803D01*
X201447Y464531D01*
X202044Y464243D01*
X202634Y463941D01*
X203216Y463625D01*
X203790Y463294D01*
X204356Y462950D01*
X204913Y462592D01*
X205462Y462220D01*
X206001Y461835D01*
X206530Y461437D01*
X207050Y461026D01*
X207559Y460602D01*
X208058Y460166D01*
X208546Y459719D01*
X209023Y459259D01*
X209489Y458787D01*
X209943Y458305D01*
X210385Y457811D01*
X210815Y457307D01*
X211232Y456793D01*
X211636Y456268D01*
X212028Y455734D01*
X212406Y455190D01*
X212771Y454637D01*
X213123Y454076D01*
X213460Y453505D01*
X213784Y452927D01*
X214093Y452341D01*
X214388Y451748D01*
X214668Y451148D01*
X214933Y450541D01*
X215184Y449928D01*
X215419Y449308D01*
X215639Y448683D01*
X215844Y448053D01*
X215708Y448011D01*
X215504Y448638D01*
X215285Y449259D01*
X215051Y449875D01*
X214802Y450485D01*
X214538Y451089D01*
X214259Y451686D01*
X213966Y452277D01*
X213658Y452859D01*
X213336Y453434D01*
X213001Y454001D01*
X212651Y454560D01*
X212288Y455110D01*
X211911Y455651D01*
X211522Y456182D01*
X211119Y456704D01*
X210704Y457216D01*
X210277Y457718D01*
X209837Y458208D01*
X209386Y458688D01*
X208923Y459157D01*
X208448Y459615D01*
X207963Y460060D01*
X207466Y460494D01*
X206960Y460915D01*
X206443Y461324D01*
X205916Y461720D01*
X205380Y462103D01*
X204834Y462472D01*
X204280Y462829D01*
X203717Y463171D01*
X203146Y463500D01*
X202567Y463815D01*
X201980Y464115D01*
X201387Y464401D01*
X200786Y464672D01*
X200179Y464929D01*
X199566Y465170D01*
X198947Y465397D01*
X198323Y465608D01*
X197694Y465804D01*
X197060Y465985D01*
X196422Y466150D01*
X195780Y466299D01*
X195135Y466433D01*
X194487Y466551D01*
X193836Y466652D01*
X193182Y466738D01*
X192527Y466808D01*
X191870Y466862D01*
X191212Y466900D01*
X190554Y466921D01*
X189895Y466927D01*
X189236Y466916D01*
X188577Y466889D01*
X187920Y466847D01*
X187263Y466788D01*
X186609Y466713D01*
X185956Y466622D01*
X185306Y466515D01*
X184658Y466392D01*
X184014Y466253D01*
X183374Y466099D01*
X182737Y465929D01*
X182105Y465743D01*
X181477Y465543D01*
X180854Y465326D01*
X180237Y465095D01*
X179626Y464849D01*
X179021Y464587D01*
X178423Y464311D01*
X177831Y464021D01*
X177247Y463716D01*
X176671Y463396D01*
X176102Y463063D01*
X175542Y462716D01*
X174990Y462356D01*
X174448Y461982D01*
X173915Y461595D01*
X173391Y461194D01*
X173480Y461082D01*
X174000Y461480D01*
X174531Y461865D01*
X175070Y462237D01*
X175619Y462596D01*
X176176Y462941D01*
X176742Y463272D01*
X177315Y463590D01*
X177896Y463893D01*
X178485Y464182D01*
X179080Y464457D01*
X179682Y464717D01*
X180290Y464962D01*
X180903Y465192D01*
X181522Y465407D01*
X182147Y465607D01*
X182776Y465791D01*
X183409Y465960D01*
X184046Y466114D01*
X184687Y466252D01*
X185331Y466374D01*
X185978Y466480D01*
X186627Y466571D01*
X187278Y466645D01*
X187931Y466704D01*
X188585Y466747D01*
X189240Y466773D01*
X189895Y466784D01*
X190551Y466778D01*
X191206Y466757D01*
X191860Y466719D01*
X192514Y466666D01*
X193165Y466596D01*
X193815Y466511D01*
X194463Y466410D01*
X195108Y466292D01*
X195750Y466160D01*
X196388Y466011D01*
X197023Y465847D01*
X197653Y465667D01*
X198279Y465472D01*
X198900Y465262D01*
X199515Y465037D01*
X200125Y464796D01*
X200729Y464541D01*
X201326Y464271D01*
X201917Y463987D01*
X202500Y463688D01*
X203076Y463375D01*
X203644Y463048D01*
X204204Y462707D01*
X204755Y462353D01*
X205298Y461985D01*
X205831Y461604D01*
X206355Y461211D01*
X206869Y460804D01*
X207373Y460385D01*
X207867Y459954D01*
X208350Y459510D01*
X208822Y459056D01*
X209283Y458589D01*
X209732Y458112D01*
X210169Y457624D01*
X210594Y457125D01*
X211007Y456616D01*
X211407Y456097D01*
X211795Y455568D01*
X212169Y455030D01*
X212531Y454483D01*
X212878Y453927D01*
X213212Y453363D01*
X213532Y452791D01*
X213838Y452212D01*
X214130Y451625D01*
X214407Y451031D01*
X214670Y450430D01*
X214918Y449823D01*
X215150Y449211D01*
X215368Y448592D01*
X215571Y447969D01*
X215434Y447927D01*
X215233Y448547D01*
X215016Y449162D01*
X214784Y449771D01*
X214538Y450375D01*
X214277Y450972D01*
X214001Y451563D01*
X213711Y452147D01*
X213406Y452723D01*
X213088Y453292D01*
X212756Y453853D01*
X212410Y454406D01*
X212051Y454950D01*
X211678Y455485D01*
X211293Y456011D01*
X210895Y456527D01*
X210484Y457034D01*
X210061Y457530D01*
X209626Y458015D01*
X209180Y458490D01*
X208721Y458954D01*
X208252Y459406D01*
X207772Y459847D01*
X207281Y460276D01*
X206779Y460693D01*
X206268Y461097D01*
X205747Y461489D01*
X205216Y461868D01*
X204677Y462234D01*
X204128Y462586D01*
X203571Y462925D01*
X203006Y463250D01*
X202433Y463562D01*
X201853Y463859D01*
X201266Y464142D01*
X200671Y464410D01*
X200071Y464664D01*
X199464Y464903D01*
X198852Y465127D01*
X198235Y465336D01*
X197612Y465530D01*
X196985Y465709D01*
X196354Y465872D01*
X195719Y466020D01*
X195081Y466152D01*
X194439Y466269D01*
X193795Y466369D01*
X193149Y466454D01*
X192500Y466523D01*
X191851Y466577D01*
X191200Y466614D01*
X190548Y466635D01*
X189896Y466641D01*
X189244Y466630D01*
X188593Y466604D01*
X187942Y466561D01*
X187293Y466503D01*
X186645Y466429D01*
X185999Y466339D01*
X185356Y466233D01*
X184716Y466112D01*
X184078Y465975D01*
X183444Y465822D01*
X182814Y465654D01*
X182189Y465470D01*
X181568Y465271D01*
X180952Y465057D01*
X180342Y464829D01*
X179737Y464585D01*
X179138Y464326D01*
X178546Y464053D01*
X177961Y463766D01*
X177383Y463464D01*
X176813Y463148D01*
X176250Y462819D01*
X175696Y462475D01*
X175150Y462119D01*
X174614Y461749D01*
X174086Y461366D01*
X173568Y460970D01*
X173657Y460858D01*
X174172Y461251D01*
X174697Y461632D01*
X175230Y462000D01*
X175773Y462355D01*
X176325Y462696D01*
X176884Y463024D01*
X177451Y463338D01*
X178026Y463638D01*
X178608Y463924D01*
X179197Y464196D01*
X179792Y464453D01*
X180394Y464695D01*
X181001Y464923D01*
X181613Y465136D01*
X182231Y465334D01*
X182853Y465516D01*
X183480Y465683D01*
X184110Y465835D01*
X184744Y465972D01*
X185381Y466092D01*
X186021Y466198D01*
X186663Y466287D01*
X187308Y466361D01*
X187953Y466419D01*
X188600Y466461D01*
X189248Y466487D01*
X189897Y466498D01*
X190545Y466492D01*
X191193Y466471D01*
X191841Y466434D01*
X192487Y466381D01*
X193132Y466312D01*
X193775Y466228D01*
X194415Y466128D01*
X195053Y466012D01*
X195688Y465880D01*
X196320Y465733D01*
X196948Y465571D01*
X197571Y465393D01*
X198190Y465200D01*
X198805Y464992D01*
X199414Y464770D01*
X200017Y464532D01*
X200614Y464279D01*
X201205Y464012D01*
X201789Y463731D01*
X202366Y463435D01*
X202936Y463126D01*
X203498Y462802D01*
X204052Y462465D01*
X204598Y462115D01*
X205134Y461751D01*
X205662Y461374D01*
X206180Y460984D01*
X206689Y460582D01*
X207188Y460167D01*
X207676Y459741D01*
X208154Y459302D01*
X208621Y458852D01*
X209076Y458391D01*
X209521Y457919D01*
X209953Y457436D01*
X210374Y456942D01*
X210783Y456439D01*
X211179Y455925D01*
X211562Y455402D01*
X211932Y454870D01*
X212290Y454329D01*
X212634Y453779D01*
X212964Y453221D01*
X213281Y452655D01*
X213583Y452082D01*
X213872Y451501D01*
X214146Y450914D01*
X214406Y450319D01*
X214651Y449719D01*
X214882Y449113D01*
X215097Y448501D01*
X215298Y447885D01*
X215161Y447843D01*
X214962Y448456D01*
X214747Y449064D01*
X214518Y449667D01*
X214274Y450264D01*
X214016Y450855D01*
X213743Y451439D01*
X213456Y452017D01*
X213155Y452587D01*
X212840Y453150D01*
X212511Y453705D01*
X212169Y454252D01*
X211814Y454790D01*
X211445Y455319D01*
X211064Y455839D01*
X210670Y456350D01*
X210264Y456851D01*
X209846Y457342D01*
X209415Y457822D01*
X208973Y458292D01*
X208520Y458751D01*
X208056Y459198D01*
X207581Y459634D01*
X207095Y460059D01*
X206599Y460471D01*
X206093Y460871D01*
X205577Y461259D01*
X205053Y461633D01*
X204519Y461995D01*
X203976Y462344D01*
X203425Y462679D01*
X202866Y463001D01*
X202300Y463309D01*
X201726Y463603D01*
X201145Y463883D01*
X200557Y464148D01*
X199963Y464399D01*
X199363Y464636D01*
X198757Y464858D01*
X198146Y465064D01*
X197530Y465256D01*
X196910Y465433D01*
X196286Y465594D01*
X195658Y465741D01*
X195026Y465871D01*
X194392Y465987D01*
X193754Y466086D01*
X193115Y466170D01*
X192474Y466239D01*
X191831Y466291D01*
X191187Y466328D01*
X190542Y466349D01*
X189897Y466355D01*
X189253Y466344D01*
X188608Y466318D01*
X187965Y466276D01*
X187322Y466219D01*
X186682Y466145D01*
X186043Y466056D01*
X185406Y465952D01*
X184773Y465831D01*
X184142Y465696D01*
X183515Y465545D01*
X182892Y465378D01*
X182273Y465197D01*
X181659Y465000D01*
X181050Y464789D01*
X180446Y464562D01*
X179848Y464321D01*
X179256Y464065D01*
X178670Y463795D01*
X178091Y463511D01*
X177519Y463212D01*
X176955Y462900D01*
X176399Y462574D01*
X175850Y462235D01*
X175311Y461882D01*
X174779Y461516D01*
X174258Y461137D01*
X173745Y460745D01*
X173834Y460633D01*
X174343Y461022D01*
X174862Y461399D01*
X175391Y461763D01*
X175927Y462114D01*
X176473Y462452D01*
X177026Y462776D01*
X177587Y463087D01*
X178156Y463384D01*
X178732Y463666D01*
X179314Y463935D01*
X179903Y464189D01*
X180498Y464429D01*
X181099Y464654D01*
X181704Y464865D01*
X182315Y465060D01*
X182931Y465241D01*
X183551Y465406D01*
X184174Y465556D01*
X184801Y465691D01*
X185431Y465811D01*
X186064Y465915D01*
X186700Y466003D01*
X187337Y466076D01*
X187976Y466134D01*
X188616Y466175D01*
X189257Y466201D01*
X189898Y466212D01*
X190540Y466206D01*
X191181Y466185D01*
X191821Y466149D01*
X192460Y466096D01*
X193098Y466028D01*
X193734Y465945D01*
X194368Y465846D01*
X194999Y465731D01*
X195627Y465601D01*
X196252Y465456D01*
X196873Y465295D01*
X197490Y465119D01*
X198102Y464928D01*
X198710Y464723D01*
X199312Y464502D01*
X199909Y464267D01*
X200500Y464017D01*
X201084Y463753D01*
X201662Y463475D01*
X202233Y463182D01*
X202796Y462876D01*
X203352Y462556D01*
X203900Y462223D01*
X204440Y461876D01*
X204971Y461516D01*
X205493Y461143D01*
X206006Y460758D01*
X206509Y460360D01*
X207002Y459950D01*
X207485Y459528D01*
X207958Y459094D01*
X208419Y458649D01*
X208870Y458193D01*
X209310Y457726D01*
X209738Y457248D01*
X210154Y456760D01*
X210558Y456262D01*
X210950Y455754D01*
X211329Y455236D01*
X211695Y454710D01*
X212049Y454175D01*
X212389Y453631D01*
X212716Y453079D01*
X213029Y452519D01*
X213328Y451952D01*
X213614Y451378D01*
X213885Y450796D01*
X214142Y450209D01*
X214385Y449615D01*
X214613Y449015D01*
X214826Y448410D01*
X215024Y447800D01*
X214888Y447758D01*
X214691Y448365D01*
X214478Y448967D01*
X214252Y449563D01*
X214010Y450153D01*
X213755Y450738D01*
X213485Y451316D01*
X213201Y451887D01*
X212903Y452451D01*
X212592Y453008D01*
X212267Y453557D01*
X211928Y454098D01*
X211577Y454630D01*
X211212Y455154D01*
X210835Y455668D01*
X210446Y456173D01*
X210044Y456669D01*
X209630Y457154D01*
X209204Y457629D01*
X208767Y458094D01*
X208319Y458548D01*
X207860Y458990D01*
X207389Y459422D01*
X206909Y459841D01*
X206419Y460249D01*
X205918Y460645D01*
X205408Y461028D01*
X204889Y461399D01*
X204361Y461757D01*
X203824Y462102D01*
X203279Y462433D01*
X202727Y462751D01*
X202166Y463056D01*
X201598Y463347D01*
X201024Y463624D01*
X200442Y463886D01*
X199855Y464135D01*
X199261Y464369D01*
X198662Y464588D01*
X198058Y464792D01*
X197449Y464982D01*
X196835Y465157D01*
X196218Y465317D01*
X195596Y465461D01*
X194972Y465591D01*
X194344Y465705D01*
X193714Y465803D01*
X193081Y465886D01*
X192447Y465954D01*
X191811Y466006D01*
X191174Y466043D01*
X190537Y466063D01*
X189899Y466069D01*
X189261Y466059D01*
X188624Y466033D01*
X187987Y465991D01*
X187352Y465934D01*
X186718Y465862D01*
X186086Y465774D01*
X185457Y465670D01*
X184830Y465551D01*
X184206Y465417D01*
X183586Y465268D01*
X182970Y465103D01*
X182358Y464924D01*
X181750Y464729D01*
X181147Y464520D01*
X180550Y464296D01*
X179958Y464057D01*
X179373Y463805D01*
X178793Y463537D01*
X178221Y463256D01*
X177655Y462961D01*
X177097Y462652D01*
X176547Y462329D01*
X176005Y461994D01*
X175471Y461645D01*
X174945Y461283D01*
X174429Y460908D01*
X173922Y460521D01*
X173125Y418469D02*
X173975Y419547D01*
X173974Y419546D02*
X174480Y419160D01*
X174994Y418787D01*
X175518Y418426D01*
X176050Y418078D01*
X176590Y417743D01*
X177139Y417422D01*
X177695Y417114D01*
X178259Y416820D01*
X178830Y416540D01*
X179407Y416273D01*
X179991Y416021D01*
X180581Y415783D01*
X181176Y415560D01*
X181777Y415352D01*
X182382Y415158D01*
X182992Y414979D01*
X183607Y414815D01*
X184225Y414666D01*
X184846Y414532D01*
X185471Y414414D01*
X186099Y414311D01*
X186728Y414223D01*
X187360Y414150D01*
X187993Y414094D01*
X188628Y414052D01*
X189263Y414026D01*
X189899Y414016D01*
X190535Y414022D01*
X191170Y414042D01*
X191805Y414079D01*
X192439Y414131D01*
X193071Y414198D01*
X193701Y414281D01*
X194329Y414379D01*
X194955Y414493D01*
X195578Y414622D01*
X196197Y414766D01*
X196813Y414925D01*
X197424Y415099D01*
X198031Y415288D01*
X198633Y415492D01*
X199231Y415711D01*
X199822Y415944D01*
X200408Y416191D01*
X200987Y416453D01*
X201560Y416729D01*
X202126Y417019D01*
X202685Y417323D01*
X203236Y417640D01*
X203779Y417970D01*
X204314Y418314D01*
X204840Y418671D01*
X205358Y419040D01*
X205866Y419422D01*
X206365Y419817D01*
X206854Y420223D01*
X207332Y420641D01*
X207801Y421071D01*
X208259Y421513D01*
X208706Y421965D01*
X209141Y422428D01*
X209566Y422902D01*
X209978Y423385D01*
X210379Y423879D01*
X210767Y424383D01*
X211143Y424896D01*
X211506Y425417D01*
X211857Y425948D01*
X212194Y426487D01*
X212518Y427034D01*
X212828Y427589D01*
X213125Y428151D01*
X213408Y428721D01*
X213677Y429297D01*
X213932Y429879D01*
X214172Y430468D01*
X214398Y431062D01*
X214610Y431662D01*
X214806Y432267D01*
X216117Y431863D01*
X216118Y431862D01*
X215911Y431225D01*
X215688Y430594D01*
X215450Y429968D01*
X215197Y429348D01*
X214929Y428735D01*
X214646Y428128D01*
X214348Y427529D01*
X214035Y426936D01*
X213708Y426352D01*
X213367Y425776D01*
X213012Y425208D01*
X212643Y424650D01*
X212261Y424100D01*
X211865Y423560D01*
X211456Y423030D01*
X211035Y422510D01*
X210600Y422000D01*
X210154Y421502D01*
X209695Y421014D01*
X209224Y420538D01*
X208742Y420073D01*
X208249Y419620D01*
X207745Y419180D01*
X207230Y418752D01*
X206705Y418337D01*
X206170Y417934D01*
X205625Y417545D01*
X205071Y417170D01*
X204507Y416808D01*
X203935Y416460D01*
X203355Y416126D01*
X202767Y415806D01*
X202171Y415501D01*
X201568Y415210D01*
X200958Y414935D01*
X200341Y414674D01*
X199718Y414428D01*
X199089Y414198D01*
X198455Y413983D01*
X197816Y413784D01*
X197172Y413601D01*
X196524Y413433D01*
X195872Y413282D01*
X195216Y413146D01*
X194558Y413026D01*
X193896Y412923D01*
X193232Y412836D01*
X192567Y412765D01*
X191899Y412710D01*
X191231Y412672D01*
X190562Y412650D01*
X189892Y412644D01*
X189223Y412655D01*
X188554Y412682D01*
X187886Y412726D01*
X187219Y412786D01*
X186554Y412862D01*
X185891Y412954D01*
X185230Y413063D01*
X184572Y413188D01*
X183918Y413329D01*
X183267Y413486D01*
X182620Y413658D01*
X181978Y413847D01*
X181340Y414051D01*
X180707Y414271D01*
X180081Y414506D01*
X179460Y414756D01*
X178845Y415022D01*
X178237Y415302D01*
X177636Y415597D01*
X177043Y415907D01*
X176457Y416232D01*
X175879Y416570D01*
X175310Y416923D01*
X174750Y417289D01*
X174199Y417669D01*
X173657Y418062D01*
X173125Y418469D01*
X173214Y418581D01*
X173743Y418177D01*
X174282Y417786D01*
X174830Y417408D01*
X175387Y417043D01*
X175954Y416692D01*
X176528Y416356D01*
X177111Y416033D01*
X177701Y415725D01*
X178299Y415431D01*
X178904Y415152D01*
X179515Y414888D01*
X180133Y414639D01*
X180756Y414405D01*
X181385Y414187D01*
X182020Y413983D01*
X182659Y413796D01*
X183302Y413624D01*
X183950Y413468D01*
X184601Y413328D01*
X185255Y413204D01*
X185912Y413096D01*
X186572Y413004D01*
X187234Y412928D01*
X187897Y412868D01*
X188562Y412825D01*
X189227Y412798D01*
X189893Y412787D01*
X190559Y412793D01*
X191225Y412815D01*
X191889Y412853D01*
X192553Y412907D01*
X193215Y412978D01*
X193876Y413064D01*
X194534Y413167D01*
X195189Y413286D01*
X195841Y413421D01*
X196490Y413572D01*
X197135Y413739D01*
X197775Y413921D01*
X198411Y414119D01*
X199042Y414333D01*
X199667Y414562D01*
X200287Y414806D01*
X200900Y415066D01*
X201507Y415340D01*
X202107Y415629D01*
X202700Y415932D01*
X203285Y416250D01*
X203863Y416583D01*
X204431Y416929D01*
X204992Y417289D01*
X205543Y417663D01*
X206085Y418050D01*
X206617Y418450D01*
X207140Y418863D01*
X207652Y419289D01*
X208153Y419727D01*
X208644Y420177D01*
X209124Y420639D01*
X209592Y421113D01*
X210048Y421598D01*
X210492Y422094D01*
X210924Y422601D01*
X211344Y423119D01*
X211751Y423646D01*
X212144Y424183D01*
X212525Y424730D01*
X212892Y425286D01*
X213245Y425850D01*
X213584Y426423D01*
X213909Y427004D01*
X214220Y427593D01*
X214517Y428190D01*
X214798Y428793D01*
X215065Y429404D01*
X215317Y430020D01*
X215554Y430643D01*
X215775Y431271D01*
X215981Y431904D01*
X215844Y431946D01*
X215639Y431316D01*
X215419Y430691D01*
X215184Y430072D01*
X214933Y429459D01*
X214668Y428852D01*
X214388Y428252D01*
X214093Y427658D01*
X213784Y427072D01*
X213460Y426494D01*
X213123Y425924D01*
X212771Y425363D01*
X212406Y424810D01*
X212028Y424266D01*
X211636Y423732D01*
X211232Y423207D01*
X210814Y422692D01*
X210385Y422188D01*
X209943Y421695D01*
X209489Y421212D01*
X209023Y420741D01*
X208546Y420281D01*
X208058Y419833D01*
X207559Y419397D01*
X207050Y418974D01*
X206530Y418563D01*
X206000Y418165D01*
X205461Y417780D01*
X204913Y417408D01*
X204356Y417050D01*
X203790Y416706D01*
X203215Y416375D01*
X202633Y416059D01*
X202044Y415757D01*
X201447Y415469D01*
X200843Y415197D01*
X200233Y414939D01*
X199617Y414696D01*
X198994Y414468D01*
X198367Y414255D01*
X197734Y414058D01*
X197097Y413877D01*
X196456Y413711D01*
X195811Y413561D01*
X195162Y413427D01*
X194510Y413308D01*
X193855Y413206D01*
X193199Y413120D01*
X192540Y413049D01*
X191880Y412995D01*
X191218Y412957D01*
X190556Y412936D01*
X189894Y412930D01*
X189231Y412941D01*
X188569Y412968D01*
X187908Y413011D01*
X187248Y413070D01*
X186590Y413146D01*
X185934Y413237D01*
X185280Y413345D01*
X184629Y413468D01*
X183982Y413607D01*
X183338Y413763D01*
X182698Y413934D01*
X182062Y414120D01*
X181431Y414322D01*
X180805Y414539D01*
X180185Y414772D01*
X179570Y415020D01*
X178962Y415283D01*
X178361Y415560D01*
X177766Y415852D01*
X177179Y416159D01*
X176599Y416480D01*
X176028Y416815D01*
X175464Y417164D01*
X174910Y417526D01*
X174365Y417902D01*
X173828Y418291D01*
X173302Y418694D01*
X173391Y418806D01*
X173914Y418406D01*
X174447Y418019D01*
X174990Y417645D01*
X175542Y417284D01*
X176102Y416937D01*
X176670Y416604D01*
X177247Y416285D01*
X177831Y415980D01*
X178422Y415689D01*
X179021Y415413D01*
X179626Y415152D01*
X180237Y414905D01*
X180854Y414674D01*
X181476Y414458D01*
X182104Y414257D01*
X182736Y414071D01*
X183373Y413901D01*
X184014Y413747D01*
X184658Y413608D01*
X185305Y413485D01*
X185956Y413378D01*
X186608Y413287D01*
X187263Y413212D01*
X187919Y413154D01*
X188577Y413111D01*
X189235Y413084D01*
X189894Y413073D01*
X190553Y413079D01*
X191212Y413100D01*
X191870Y413138D01*
X192527Y413192D01*
X193182Y413262D01*
X193835Y413348D01*
X194486Y413449D01*
X195135Y413567D01*
X195780Y413701D01*
X196422Y413850D01*
X197060Y414015D01*
X197694Y414195D01*
X198323Y414391D01*
X198947Y414603D01*
X199566Y414829D01*
X200179Y415071D01*
X200786Y415328D01*
X201386Y415599D01*
X201980Y415885D01*
X202567Y416185D01*
X203146Y416500D01*
X203717Y416829D01*
X204280Y417171D01*
X204834Y417527D01*
X205379Y417897D01*
X205916Y418280D01*
X206442Y418676D01*
X206959Y419085D01*
X207466Y419506D01*
X207962Y419940D01*
X208448Y420385D01*
X208922Y420843D01*
X209386Y421311D01*
X209837Y421791D01*
X210277Y422282D01*
X210704Y422784D01*
X211119Y423296D01*
X211522Y423817D01*
X211911Y424349D01*
X212288Y424890D01*
X212651Y425440D01*
X213000Y425998D01*
X213336Y426565D01*
X213658Y427140D01*
X213965Y427723D01*
X214259Y428313D01*
X214537Y428911D01*
X214801Y429514D01*
X215051Y430124D01*
X215285Y430740D01*
X215504Y431362D01*
X215708Y431989D01*
X215571Y432031D01*
X215368Y431407D01*
X215150Y430789D01*
X214917Y430176D01*
X214670Y429570D01*
X214407Y428969D01*
X214130Y428375D01*
X213838Y427788D01*
X213532Y427208D01*
X213212Y426636D01*
X212878Y426072D01*
X212530Y425517D01*
X212169Y424970D01*
X211795Y424432D01*
X211407Y423903D01*
X211007Y423384D01*
X210594Y422875D01*
X210169Y422376D01*
X209732Y421888D01*
X209282Y421410D01*
X208822Y420944D01*
X208350Y420489D01*
X207867Y420046D01*
X207373Y419615D01*
X206869Y419196D01*
X206355Y418789D01*
X205831Y418395D01*
X205298Y418014D01*
X204755Y417647D01*
X204204Y417292D01*
X203644Y416952D01*
X203076Y416625D01*
X202500Y416312D01*
X201916Y416013D01*
X201326Y415728D01*
X200728Y415459D01*
X200125Y415203D01*
X199515Y414963D01*
X198899Y414738D01*
X198278Y414527D01*
X197653Y414333D01*
X197022Y414153D01*
X196388Y413989D01*
X195749Y413840D01*
X195107Y413707D01*
X194462Y413590D01*
X193815Y413489D01*
X193165Y413404D01*
X192513Y413334D01*
X191860Y413281D01*
X191206Y413243D01*
X190550Y413222D01*
X189895Y413216D01*
X189240Y413227D01*
X188585Y413253D01*
X187931Y413296D01*
X187278Y413355D01*
X186627Y413429D01*
X185977Y413520D01*
X185331Y413626D01*
X184687Y413748D01*
X184046Y413886D01*
X183408Y414040D01*
X182775Y414209D01*
X182146Y414393D01*
X181522Y414593D01*
X180903Y414808D01*
X180289Y415038D01*
X179681Y415284D01*
X179079Y415543D01*
X178484Y415818D01*
X177896Y416107D01*
X177315Y416410D01*
X176741Y416728D01*
X176176Y417059D01*
X175619Y417404D01*
X175070Y417763D01*
X174530Y418135D01*
X174000Y418520D01*
X173479Y418918D01*
X173568Y419031D01*
X174086Y418635D01*
X174613Y418252D01*
X175150Y417882D01*
X175696Y417525D01*
X176250Y417182D01*
X176812Y416852D01*
X177383Y416536D01*
X177961Y416234D01*
X178546Y415947D01*
X179138Y415674D01*
X179736Y415415D01*
X180341Y415172D01*
X180952Y414943D01*
X181567Y414729D01*
X182188Y414530D01*
X182814Y414346D01*
X183444Y414178D01*
X184078Y414026D01*
X184715Y413888D01*
X185356Y413767D01*
X185999Y413661D01*
X186645Y413571D01*
X187292Y413497D01*
X187942Y413439D01*
X188592Y413396D01*
X189244Y413370D01*
X189896Y413359D01*
X190548Y413365D01*
X191199Y413386D01*
X191850Y413423D01*
X192500Y413477D01*
X193148Y413546D01*
X193795Y413631D01*
X194439Y413731D01*
X195080Y413848D01*
X195719Y413980D01*
X196354Y414128D01*
X196985Y414291D01*
X197612Y414470D01*
X198234Y414663D01*
X198852Y414873D01*
X199464Y415097D01*
X200071Y415336D01*
X200671Y415590D01*
X201265Y415858D01*
X201853Y416141D01*
X202433Y416438D01*
X203006Y416749D01*
X203571Y417075D01*
X204128Y417414D01*
X204676Y417766D01*
X205216Y418132D01*
X205746Y418511D01*
X206268Y418902D01*
X206779Y419307D01*
X207280Y419724D01*
X207771Y420153D01*
X208252Y420593D01*
X208721Y421046D01*
X209179Y421510D01*
X209626Y421984D01*
X210061Y422470D01*
X210484Y422966D01*
X210895Y423473D01*
X211293Y423989D01*
X211678Y424515D01*
X212051Y425050D01*
X212410Y425594D01*
X212756Y426147D01*
X213088Y426708D01*
X213406Y427276D01*
X213711Y427853D01*
X214001Y428437D01*
X214277Y429028D01*
X214538Y429625D01*
X214784Y430229D01*
X215016Y430838D01*
X215233Y431453D01*
X215434Y432073D01*
X215298Y432115D01*
X215097Y431498D01*
X214882Y430887D01*
X214651Y430281D01*
X214406Y429680D01*
X214146Y429086D01*
X213872Y428499D01*
X213583Y427918D01*
X213280Y427344D01*
X212964Y426779D01*
X212633Y426221D01*
X212289Y425671D01*
X211932Y425130D01*
X211562Y424598D01*
X211178Y424075D01*
X210782Y423561D01*
X210374Y423057D01*
X209953Y422564D01*
X209521Y422081D01*
X209076Y421609D01*
X208620Y421147D01*
X208154Y420697D01*
X207676Y420259D01*
X207187Y419832D01*
X206689Y419418D01*
X206180Y419016D01*
X205662Y418626D01*
X205134Y418249D01*
X204597Y417885D01*
X204052Y417535D01*
X203498Y417198D01*
X202936Y416874D01*
X202366Y416564D01*
X201789Y416269D01*
X201205Y415988D01*
X200614Y415721D01*
X200017Y415468D01*
X199413Y415230D01*
X198804Y415007D01*
X198190Y414799D01*
X197571Y414607D01*
X196947Y414429D01*
X196320Y414267D01*
X195688Y414120D01*
X195053Y413988D01*
X194415Y413872D01*
X193774Y413772D01*
X193131Y413688D01*
X192487Y413619D01*
X191840Y413566D01*
X191193Y413529D01*
X190545Y413508D01*
X189896Y413502D01*
X189248Y413513D01*
X188600Y413539D01*
X187953Y413581D01*
X187307Y413639D01*
X186663Y413713D01*
X186021Y413803D01*
X185381Y413908D01*
X184744Y414029D01*
X184110Y414165D01*
X183479Y414317D01*
X182853Y414484D01*
X182231Y414667D01*
X181613Y414864D01*
X181000Y415077D01*
X180393Y415305D01*
X179792Y415547D01*
X179197Y415804D01*
X178608Y416076D01*
X178026Y416362D01*
X177451Y416662D01*
X176884Y416976D01*
X176324Y417304D01*
X175773Y417645D01*
X175230Y418000D01*
X174696Y418368D01*
X174171Y418749D01*
X173656Y419143D01*
X173745Y419255D01*
X174257Y418864D01*
X174779Y418485D01*
X175310Y418119D01*
X175850Y417766D01*
X176398Y417426D01*
X176955Y417100D01*
X177519Y416788D01*
X178091Y416489D01*
X178669Y416205D01*
X179255Y415935D01*
X179847Y415679D01*
X180445Y415438D01*
X181049Y415211D01*
X181659Y415000D01*
X182273Y414803D01*
X182892Y414622D01*
X183515Y414455D01*
X184142Y414304D01*
X184772Y414169D01*
X185406Y414049D01*
X186042Y413944D01*
X186681Y413855D01*
X187322Y413781D01*
X187964Y413724D01*
X188608Y413682D01*
X189252Y413656D01*
X189897Y413645D01*
X190542Y413651D01*
X191187Y413672D01*
X191830Y413709D01*
X192473Y413761D01*
X193115Y413830D01*
X193754Y413914D01*
X194391Y414013D01*
X195026Y414129D01*
X195657Y414259D01*
X196285Y414405D01*
X196910Y414567D01*
X197530Y414744D01*
X198146Y414935D01*
X198757Y415142D01*
X199362Y415364D01*
X199962Y415600D01*
X200556Y415852D01*
X201144Y416117D01*
X201725Y416397D01*
X202299Y416691D01*
X202866Y416999D01*
X203425Y417321D01*
X203976Y417656D01*
X204518Y418005D01*
X205052Y418366D01*
X205577Y418741D01*
X206093Y419129D01*
X206599Y419529D01*
X207095Y419941D01*
X207580Y420365D01*
X208055Y420801D01*
X208520Y421249D01*
X208973Y421708D01*
X209415Y422178D01*
X209845Y422658D01*
X210264Y423149D01*
X210670Y423650D01*
X211064Y424160D01*
X211445Y424680D01*
X211814Y425210D01*
X212169Y425748D01*
X212511Y426295D01*
X212840Y426850D01*
X213155Y427412D01*
X213456Y427983D01*
X213743Y428560D01*
X214016Y429145D01*
X214274Y429736D01*
X214518Y430333D01*
X214747Y430936D01*
X214962Y431544D01*
X215161Y432157D01*
X215024Y432199D01*
X214826Y431589D01*
X214613Y430984D01*
X214385Y430385D01*
X214142Y429791D01*
X213885Y429203D01*
X213614Y428622D01*
X213328Y428048D01*
X213029Y427480D01*
X212716Y426921D01*
X212389Y426369D01*
X212049Y425825D01*
X211695Y425290D01*
X211329Y424763D01*
X210949Y424246D01*
X210558Y423738D01*
X210154Y423240D01*
X209738Y422752D01*
X209310Y422274D01*
X208870Y421807D01*
X208419Y421351D01*
X207957Y420905D01*
X207485Y420472D01*
X207002Y420050D01*
X206508Y419640D01*
X206005Y419242D01*
X205493Y418856D01*
X204971Y418484D01*
X204440Y418124D01*
X203900Y417777D01*
X203352Y417444D01*
X202796Y417124D01*
X202233Y416817D01*
X201662Y416525D01*
X201084Y416247D01*
X200499Y415983D01*
X199908Y415733D01*
X199312Y415498D01*
X198709Y415277D01*
X198102Y415071D01*
X197489Y414881D01*
X196872Y414705D01*
X196251Y414544D01*
X195627Y414399D01*
X194999Y414269D01*
X194367Y414154D01*
X193734Y414055D01*
X193098Y413972D01*
X192460Y413904D01*
X191821Y413851D01*
X191180Y413815D01*
X190539Y413794D01*
X189898Y413788D01*
X189256Y413799D01*
X188615Y413825D01*
X187975Y413866D01*
X187337Y413924D01*
X186699Y413997D01*
X186064Y414085D01*
X185431Y414189D01*
X184801Y414309D01*
X184174Y414444D01*
X183550Y414594D01*
X182930Y414759D01*
X182315Y414940D01*
X181704Y415135D01*
X181098Y415346D01*
X180497Y415571D01*
X179903Y415811D01*
X179314Y416065D01*
X178731Y416334D01*
X178156Y416617D01*
X177587Y416914D01*
X177026Y417224D01*
X176472Y417548D01*
X175927Y417886D01*
X175390Y418237D01*
X174862Y418601D01*
X174343Y418978D01*
X173833Y419367D01*
X173922Y419480D01*
X174429Y419092D01*
X174945Y418718D01*
X175470Y418356D01*
X176004Y418007D01*
X176546Y417671D01*
X177097Y417348D01*
X177655Y417039D01*
X178220Y416744D01*
X178793Y416463D01*
X179372Y416196D01*
X179958Y415943D01*
X180550Y415704D01*
X181147Y415480D01*
X181750Y415271D01*
X182357Y415077D01*
X182969Y414897D01*
X183586Y414732D01*
X184206Y414583D01*
X184829Y414449D01*
X185456Y414330D01*
X186086Y414227D01*
X186717Y414138D01*
X187351Y414066D01*
X187987Y414009D01*
X188623Y413967D01*
X189261Y413941D01*
X189898Y413931D01*
X190536Y413937D01*
X191174Y413957D01*
X191811Y413994D01*
X192447Y414046D01*
X193081Y414114D01*
X193713Y414197D01*
X194344Y414295D01*
X194971Y414409D01*
X195596Y414539D01*
X196217Y414683D01*
X196835Y414843D01*
X197448Y415018D01*
X198057Y415207D01*
X198662Y415412D01*
X199261Y415631D01*
X199854Y415865D01*
X200442Y416114D01*
X201023Y416376D01*
X201598Y416653D01*
X202166Y416944D01*
X202726Y417248D01*
X203279Y417567D01*
X203824Y417898D01*
X204361Y418243D01*
X204889Y418601D01*
X205408Y418972D01*
X205918Y419355D01*
X206418Y419751D01*
X206909Y420159D01*
X207389Y420578D01*
X207859Y421009D01*
X208319Y421452D01*
X208767Y421906D01*
X209204Y422371D01*
X209630Y422846D01*
X210044Y423331D01*
X210445Y423827D01*
X210835Y424332D01*
X211212Y424846D01*
X211577Y425370D01*
X211928Y425902D01*
X212267Y426443D01*
X212592Y426992D01*
X212903Y427549D01*
X213201Y428113D01*
X213485Y428684D01*
X213755Y429262D01*
X214010Y429846D01*
X214252Y430437D01*
X214478Y431033D01*
X214690Y431635D01*
X214888Y432241D01*
D10*
X173490Y419055D02*
X173490Y460945D01*
X187460Y462537D02*
X187460Y466549D01*
X187460Y442863D02*
X187460Y437137D01*
X187460Y417463D02*
X187460Y413451D01*
D12*
X166035Y470242D02*
X166035Y477868D01*
X167942Y479775D01*
X171755Y479775D01*
X173662Y477868D01*
X173662Y470242D01*
X171755Y468335D01*
X167942Y468335D01*
X166035Y470242D01*
X169848Y472148D02*
X173662Y468335D01*
X177729Y475962D02*
X181542Y479775D01*
X181542Y468335D01*
X177729Y468335D02*
X185355Y468335D01*
D10*
X171590Y334760D02*
X177940Y328410D01*
X171590Y322060D01*
X165240Y328410D01*
D15*
X134088Y340630D02*
X135274Y341322D01*
X135273Y341321D02*
X135486Y340970D01*
X135707Y340623D01*
X135937Y340282D01*
X136175Y339947D01*
X136420Y339618D01*
X136674Y339294D01*
X136935Y338977D01*
X137204Y338666D01*
X137480Y338362D01*
X137763Y338064D01*
X138054Y337773D01*
X138351Y337490D01*
X138655Y337213D01*
X138966Y336944D01*
X139283Y336683D01*
X139606Y336429D01*
X139935Y336183D01*
X140271Y335945D01*
X140611Y335715D01*
X140957Y335494D01*
X141309Y335280D01*
X141665Y335076D01*
X142026Y334880D01*
X142392Y334692D01*
X142762Y334514D01*
X143137Y334344D01*
X143515Y334184D01*
X143897Y334033D01*
X144283Y333890D01*
X144672Y333758D01*
X145064Y333634D01*
X145459Y333520D01*
X145856Y333416D01*
X146256Y333321D01*
X146658Y333236D01*
X147062Y333160D01*
X147468Y333095D01*
X147875Y333039D01*
X148283Y332992D01*
X148692Y332956D01*
X149103Y332930D01*
X149513Y332913D01*
X149924Y332906D01*
X149925Y331535D01*
X149924Y331534D01*
X149480Y331541D01*
X149036Y331559D01*
X148593Y331588D01*
X148150Y331627D01*
X147709Y331677D01*
X147269Y331737D01*
X146830Y331808D01*
X146393Y331890D01*
X145959Y331982D01*
X145527Y332084D01*
X145097Y332197D01*
X144670Y332320D01*
X144246Y332453D01*
X143826Y332597D01*
X143409Y332750D01*
X142996Y332914D01*
X142587Y333087D01*
X142182Y333271D01*
X141782Y333463D01*
X141387Y333666D01*
X140996Y333878D01*
X140611Y334099D01*
X140231Y334330D01*
X139857Y334569D01*
X139489Y334818D01*
X139127Y335075D01*
X138771Y335341D01*
X138421Y335615D01*
X138079Y335898D01*
X137743Y336189D01*
X137414Y336487D01*
X137093Y336794D01*
X136779Y337108D01*
X136473Y337430D01*
X136174Y337759D01*
X135884Y338095D01*
X135601Y338438D01*
X135327Y338788D01*
X135062Y339144D01*
X134805Y339507D01*
X134557Y339875D01*
X134318Y340250D01*
X134088Y340630D01*
X134212Y340702D01*
X134440Y340325D01*
X134677Y339953D01*
X134923Y339588D01*
X135178Y339228D01*
X135441Y338875D01*
X135713Y338528D01*
X135993Y338187D01*
X136281Y337854D01*
X136578Y337527D01*
X136881Y337208D01*
X137193Y336896D01*
X137512Y336592D01*
X137838Y336295D01*
X138171Y336007D01*
X138511Y335726D01*
X138858Y335454D01*
X139211Y335190D01*
X139570Y334935D01*
X139936Y334689D01*
X140307Y334451D01*
X140684Y334222D01*
X141066Y334003D01*
X141453Y333792D01*
X141846Y333591D01*
X142243Y333400D01*
X142644Y333218D01*
X143050Y333046D01*
X143460Y332884D01*
X143873Y332732D01*
X144291Y332589D01*
X144711Y332457D01*
X145135Y332335D01*
X145561Y332223D01*
X145990Y332121D01*
X146421Y332030D01*
X146854Y331949D01*
X147289Y331879D01*
X147726Y331819D01*
X148164Y331769D01*
X148603Y331730D01*
X149043Y331702D01*
X149483Y331684D01*
X149924Y331677D01*
X149924Y331820D01*
X149487Y331827D01*
X149050Y331845D01*
X148614Y331873D01*
X148178Y331912D01*
X147743Y331961D01*
X147310Y332020D01*
X146878Y332090D01*
X146449Y332170D01*
X146021Y332261D01*
X145595Y332362D01*
X145172Y332473D01*
X144752Y332594D01*
X144335Y332725D01*
X143921Y332866D01*
X143511Y333018D01*
X143104Y333179D01*
X142702Y333349D01*
X142303Y333530D01*
X141909Y333720D01*
X141520Y333919D01*
X141136Y334128D01*
X140756Y334345D01*
X140383Y334572D01*
X140014Y334808D01*
X139652Y335053D01*
X139295Y335306D01*
X138945Y335567D01*
X138601Y335838D01*
X138264Y336116D01*
X137933Y336402D01*
X137610Y336696D01*
X137293Y336998D01*
X136984Y337308D01*
X136683Y337624D01*
X136389Y337948D01*
X136103Y338279D01*
X135825Y338617D01*
X135555Y338961D01*
X135294Y339312D01*
X135041Y339668D01*
X134797Y340031D01*
X134561Y340400D01*
X134335Y340774D01*
X134459Y340846D01*
X134683Y340475D01*
X134917Y340109D01*
X135159Y339749D01*
X135410Y339395D01*
X135669Y339047D01*
X135937Y338706D01*
X136212Y338371D01*
X136496Y338043D01*
X136788Y337721D01*
X137087Y337407D01*
X137393Y337100D01*
X137707Y336801D01*
X138028Y336509D01*
X138356Y336225D01*
X138691Y335949D01*
X139032Y335681D01*
X139380Y335421D01*
X139733Y335170D01*
X140093Y334927D01*
X140458Y334694D01*
X140829Y334468D01*
X141205Y334252D01*
X141587Y334045D01*
X141973Y333848D01*
X142364Y333659D01*
X142759Y333480D01*
X143158Y333311D01*
X143562Y333151D01*
X143969Y333001D01*
X144379Y332861D01*
X144793Y332731D01*
X145210Y332611D01*
X145630Y332500D01*
X146052Y332400D01*
X146476Y332311D01*
X146903Y332231D01*
X147331Y332162D01*
X147761Y332103D01*
X148192Y332054D01*
X148624Y332016D01*
X149057Y331988D01*
X149490Y331970D01*
X149924Y331963D01*
X149924Y332106D01*
X149494Y332113D01*
X149064Y332131D01*
X148634Y332158D01*
X148206Y332196D01*
X147778Y332245D01*
X147352Y332303D01*
X146927Y332372D01*
X146504Y332451D01*
X146083Y332540D01*
X145664Y332639D01*
X145248Y332749D01*
X144834Y332868D01*
X144424Y332997D01*
X144016Y333136D01*
X143612Y333285D01*
X143212Y333443D01*
X142816Y333611D01*
X142424Y333789D01*
X142036Y333976D01*
X141653Y334172D01*
X141275Y334377D01*
X140902Y334592D01*
X140534Y334815D01*
X140171Y335047D01*
X139815Y335288D01*
X139464Y335537D01*
X139119Y335794D01*
X138781Y336060D01*
X138449Y336334D01*
X138123Y336616D01*
X137805Y336905D01*
X137493Y337202D01*
X137189Y337507D01*
X136893Y337819D01*
X136603Y338137D01*
X136322Y338463D01*
X136048Y338795D01*
X135783Y339134D01*
X135526Y339479D01*
X135277Y339830D01*
X135037Y340187D01*
X134805Y340550D01*
X134582Y340918D01*
X134706Y340990D01*
X134927Y340625D01*
X135156Y340265D01*
X135395Y339911D01*
X135642Y339563D01*
X135897Y339220D01*
X136160Y338884D01*
X136431Y338555D01*
X136711Y338232D01*
X136997Y337916D01*
X137292Y337606D01*
X137594Y337304D01*
X137902Y337010D01*
X138218Y336723D01*
X138541Y336443D01*
X138870Y336171D01*
X139206Y335908D01*
X139548Y335652D01*
X139896Y335405D01*
X140250Y335166D01*
X140610Y334936D01*
X140975Y334715D01*
X141345Y334502D01*
X141720Y334298D01*
X142100Y334104D01*
X142485Y333918D01*
X142873Y333742D01*
X143266Y333576D01*
X143663Y333419D01*
X144064Y333271D01*
X144468Y333133D01*
X144875Y333005D01*
X145285Y332887D01*
X145698Y332778D01*
X146114Y332680D01*
X146531Y332591D01*
X146951Y332513D01*
X147372Y332445D01*
X147795Y332386D01*
X148219Y332339D01*
X148645Y332301D01*
X149071Y332273D01*
X149497Y332256D01*
X149924Y332249D01*
X149924Y332392D01*
X149501Y332399D01*
X149078Y332416D01*
X148655Y332443D01*
X148233Y332481D01*
X147813Y332528D01*
X147393Y332586D01*
X146975Y332654D01*
X146559Y332732D01*
X146145Y332819D01*
X145733Y332917D01*
X145323Y333025D01*
X144916Y333142D01*
X144512Y333269D01*
X144112Y333406D01*
X143714Y333552D01*
X143321Y333708D01*
X142931Y333873D01*
X142545Y334048D01*
X142164Y334232D01*
X141787Y334425D01*
X141415Y334627D01*
X141047Y334838D01*
X140685Y335057D01*
X140329Y335286D01*
X139978Y335523D01*
X139632Y335768D01*
X139293Y336021D01*
X138960Y336283D01*
X138634Y336552D01*
X138313Y336829D01*
X138000Y337114D01*
X137694Y337406D01*
X137394Y337706D01*
X137102Y338013D01*
X136818Y338326D01*
X136541Y338647D01*
X136272Y338974D01*
X136011Y339307D01*
X135758Y339646D01*
X135513Y339992D01*
X135276Y340343D01*
X135048Y340700D01*
X134829Y341062D01*
X134953Y341134D01*
X135170Y340775D01*
X135396Y340421D01*
X135631Y340073D01*
X135874Y339730D01*
X136125Y339393D01*
X136384Y339063D01*
X136651Y338739D01*
X136925Y338421D01*
X137207Y338110D01*
X137497Y337806D01*
X137794Y337509D01*
X138098Y337219D01*
X138409Y336936D01*
X138726Y336661D01*
X139050Y336394D01*
X139380Y336135D01*
X139717Y335883D01*
X140059Y335640D01*
X140407Y335405D01*
X140761Y335179D01*
X141120Y334961D01*
X141484Y334752D01*
X141853Y334551D01*
X142227Y334360D01*
X142605Y334178D01*
X142988Y334004D01*
X143375Y333840D01*
X143765Y333686D01*
X144159Y333541D01*
X144557Y333405D01*
X144957Y333279D01*
X145361Y333162D01*
X145767Y333056D01*
X146176Y332959D01*
X146586Y332872D01*
X146999Y332795D01*
X147414Y332728D01*
X147830Y332670D01*
X148247Y332623D01*
X148665Y332586D01*
X149085Y332559D01*
X149504Y332542D01*
X149924Y332535D01*
X149924Y332678D01*
X149508Y332685D01*
X149092Y332702D01*
X148676Y332729D01*
X148261Y332766D01*
X147847Y332812D01*
X147435Y332869D01*
X147023Y332936D01*
X146614Y333012D01*
X146207Y333098D01*
X145801Y333195D01*
X145398Y333300D01*
X144998Y333416D01*
X144601Y333541D01*
X144207Y333675D01*
X143816Y333819D01*
X143429Y333973D01*
X143045Y334135D01*
X142666Y334307D01*
X142291Y334488D01*
X141920Y334678D01*
X141554Y334877D01*
X141193Y335084D01*
X140837Y335300D01*
X140486Y335525D01*
X140141Y335758D01*
X139801Y335999D01*
X139467Y336248D01*
X139140Y336505D01*
X138818Y336770D01*
X138504Y337043D01*
X138195Y337323D01*
X137894Y337611D01*
X137600Y337905D01*
X137312Y338207D01*
X137033Y338515D01*
X136760Y338830D01*
X136495Y339152D01*
X136239Y339480D01*
X135990Y339814D01*
X135749Y340153D01*
X135516Y340499D01*
X135292Y340850D01*
X135076Y341206D01*
X135200Y341278D01*
X135414Y340925D01*
X135636Y340577D01*
X135867Y340234D01*
X136106Y339897D01*
X136352Y339566D01*
X136607Y339241D01*
X136870Y338922D01*
X137140Y338610D01*
X137417Y338304D01*
X137702Y338005D01*
X137994Y337713D01*
X138293Y337428D01*
X138599Y337150D01*
X138911Y336879D01*
X139230Y336617D01*
X139554Y336362D01*
X139885Y336114D01*
X140222Y335875D01*
X140565Y335644D01*
X140912Y335421D01*
X141265Y335207D01*
X141624Y335002D01*
X141987Y334804D01*
X142354Y334616D01*
X142726Y334437D01*
X143103Y334266D01*
X143483Y334105D01*
X143867Y333953D01*
X144254Y333810D01*
X144645Y333677D01*
X145039Y333553D01*
X145436Y333438D01*
X145836Y333333D01*
X146237Y333238D01*
X146642Y333152D01*
X147048Y333077D01*
X147455Y333011D01*
X147864Y332954D01*
X148275Y332908D01*
X148686Y332871D01*
X149098Y332845D01*
X149511Y332828D01*
X149924Y332821D01*
X150075Y331535D02*
X150075Y332907D01*
X150076Y332906D02*
X150487Y332913D01*
X150897Y332930D01*
X151308Y332956D01*
X151717Y332992D01*
X152125Y333039D01*
X152532Y333095D01*
X152938Y333160D01*
X153342Y333236D01*
X153744Y333321D01*
X154144Y333416D01*
X154541Y333520D01*
X154936Y333634D01*
X155328Y333758D01*
X155717Y333890D01*
X156103Y334033D01*
X156485Y334184D01*
X156863Y334344D01*
X157238Y334514D01*
X157608Y334692D01*
X157974Y334880D01*
X158335Y335076D01*
X158691Y335280D01*
X159043Y335494D01*
X159389Y335715D01*
X159729Y335945D01*
X160065Y336183D01*
X160394Y336429D01*
X160717Y336683D01*
X161034Y336944D01*
X161345Y337213D01*
X161649Y337490D01*
X161946Y337773D01*
X162237Y338064D01*
X162520Y338362D01*
X162796Y338666D01*
X163065Y338977D01*
X163326Y339294D01*
X163580Y339618D01*
X163825Y339947D01*
X164063Y340282D01*
X164293Y340623D01*
X164514Y340970D01*
X164727Y341321D01*
X165912Y340630D01*
X165682Y340250D01*
X165443Y339875D01*
X165195Y339507D01*
X164938Y339144D01*
X164673Y338788D01*
X164399Y338438D01*
X164116Y338095D01*
X163826Y337759D01*
X163527Y337430D01*
X163221Y337108D01*
X162907Y336794D01*
X162586Y336487D01*
X162257Y336189D01*
X161921Y335898D01*
X161579Y335615D01*
X161229Y335341D01*
X160873Y335075D01*
X160511Y334818D01*
X160143Y334569D01*
X159769Y334330D01*
X159389Y334099D01*
X159004Y333878D01*
X158613Y333666D01*
X158218Y333463D01*
X157818Y333271D01*
X157413Y333087D01*
X157004Y332914D01*
X156591Y332750D01*
X156174Y332597D01*
X155754Y332453D01*
X155330Y332320D01*
X154903Y332197D01*
X154473Y332084D01*
X154041Y331982D01*
X153607Y331890D01*
X153170Y331808D01*
X152731Y331737D01*
X152291Y331677D01*
X151850Y331627D01*
X151407Y331588D01*
X150964Y331559D01*
X150520Y331541D01*
X150076Y331534D01*
X150076Y331677D01*
X150517Y331684D01*
X150957Y331702D01*
X151397Y331730D01*
X151836Y331769D01*
X152274Y331819D01*
X152711Y331879D01*
X153146Y331949D01*
X153579Y332030D01*
X154010Y332121D01*
X154439Y332223D01*
X154865Y332335D01*
X155289Y332457D01*
X155709Y332589D01*
X156127Y332732D01*
X156540Y332884D01*
X156950Y333046D01*
X157356Y333218D01*
X157757Y333400D01*
X158154Y333591D01*
X158547Y333792D01*
X158934Y334003D01*
X159316Y334222D01*
X159693Y334451D01*
X160064Y334689D01*
X160430Y334935D01*
X160789Y335190D01*
X161142Y335454D01*
X161489Y335726D01*
X161829Y336007D01*
X162162Y336295D01*
X162488Y336592D01*
X162807Y336896D01*
X163119Y337208D01*
X163422Y337527D01*
X163719Y337854D01*
X164007Y338187D01*
X164287Y338528D01*
X164559Y338875D01*
X164822Y339228D01*
X165077Y339588D01*
X165323Y339953D01*
X165560Y340325D01*
X165788Y340702D01*
X165665Y340774D01*
X165439Y340400D01*
X165203Y340031D01*
X164959Y339668D01*
X164706Y339312D01*
X164445Y338961D01*
X164175Y338617D01*
X163897Y338279D01*
X163611Y337948D01*
X163317Y337624D01*
X163016Y337308D01*
X162707Y336998D01*
X162390Y336696D01*
X162067Y336402D01*
X161736Y336116D01*
X161399Y335838D01*
X161055Y335567D01*
X160705Y335306D01*
X160348Y335053D01*
X159986Y334808D01*
X159617Y334572D01*
X159244Y334345D01*
X158864Y334128D01*
X158480Y333919D01*
X158091Y333720D01*
X157697Y333530D01*
X157298Y333349D01*
X156896Y333179D01*
X156489Y333018D01*
X156079Y332866D01*
X155665Y332725D01*
X155248Y332594D01*
X154828Y332473D01*
X154405Y332362D01*
X153979Y332261D01*
X153551Y332170D01*
X153122Y332090D01*
X152690Y332020D01*
X152257Y331961D01*
X151822Y331912D01*
X151386Y331873D01*
X150950Y331845D01*
X150513Y331827D01*
X150076Y331820D01*
X150076Y331963D01*
X150510Y331970D01*
X150943Y331988D01*
X151376Y332016D01*
X151808Y332054D01*
X152239Y332103D01*
X152669Y332162D01*
X153097Y332231D01*
X153524Y332311D01*
X153948Y332400D01*
X154370Y332500D01*
X154790Y332611D01*
X155207Y332731D01*
X155621Y332861D01*
X156031Y333001D01*
X156438Y333151D01*
X156842Y333311D01*
X157241Y333480D01*
X157636Y333659D01*
X158027Y333848D01*
X158413Y334045D01*
X158795Y334252D01*
X159171Y334468D01*
X159542Y334694D01*
X159907Y334927D01*
X160267Y335170D01*
X160620Y335421D01*
X160968Y335681D01*
X161309Y335949D01*
X161644Y336225D01*
X161972Y336509D01*
X162293Y336801D01*
X162607Y337100D01*
X162913Y337407D01*
X163212Y337721D01*
X163504Y338043D01*
X163788Y338371D01*
X164063Y338706D01*
X164331Y339047D01*
X164590Y339395D01*
X164841Y339749D01*
X165083Y340109D01*
X165317Y340475D01*
X165541Y340846D01*
X165418Y340918D01*
X165195Y340550D01*
X164963Y340187D01*
X164723Y339830D01*
X164474Y339479D01*
X164217Y339134D01*
X163952Y338795D01*
X163678Y338463D01*
X163397Y338137D01*
X163107Y337819D01*
X162811Y337507D01*
X162507Y337202D01*
X162195Y336905D01*
X161877Y336616D01*
X161551Y336334D01*
X161219Y336060D01*
X160881Y335794D01*
X160536Y335537D01*
X160185Y335288D01*
X159829Y335047D01*
X159466Y334815D01*
X159098Y334592D01*
X158725Y334377D01*
X158347Y334172D01*
X157964Y333976D01*
X157576Y333789D01*
X157184Y333611D01*
X156788Y333443D01*
X156388Y333285D01*
X155984Y333136D01*
X155576Y332997D01*
X155166Y332868D01*
X154752Y332749D01*
X154336Y332639D01*
X153917Y332540D01*
X153496Y332451D01*
X153073Y332372D01*
X152648Y332303D01*
X152222Y332245D01*
X151794Y332196D01*
X151366Y332158D01*
X150936Y332131D01*
X150506Y332113D01*
X150076Y332106D01*
X150076Y332249D01*
X150503Y332256D01*
X150929Y332273D01*
X151355Y332301D01*
X151781Y332339D01*
X152205Y332386D01*
X152628Y332445D01*
X153049Y332513D01*
X153469Y332591D01*
X153886Y332680D01*
X154302Y332778D01*
X154715Y332887D01*
X155125Y333005D01*
X155532Y333133D01*
X155936Y333271D01*
X156337Y333419D01*
X156734Y333576D01*
X157127Y333742D01*
X157515Y333918D01*
X157900Y334104D01*
X158280Y334298D01*
X158655Y334502D01*
X159025Y334715D01*
X159390Y334936D01*
X159750Y335166D01*
X160104Y335405D01*
X160452Y335652D01*
X160794Y335908D01*
X161130Y336171D01*
X161459Y336443D01*
X161782Y336723D01*
X162098Y337010D01*
X162406Y337304D01*
X162708Y337606D01*
X163003Y337916D01*
X163289Y338232D01*
X163569Y338555D01*
X163840Y338884D01*
X164103Y339220D01*
X164358Y339563D01*
X164605Y339911D01*
X164844Y340265D01*
X165073Y340625D01*
X165294Y340990D01*
X165171Y341062D01*
X164952Y340700D01*
X164724Y340343D01*
X164487Y339992D01*
X164242Y339646D01*
X163989Y339307D01*
X163728Y338974D01*
X163459Y338647D01*
X163182Y338326D01*
X162898Y338013D01*
X162606Y337706D01*
X162306Y337406D01*
X162000Y337114D01*
X161687Y336829D01*
X161366Y336552D01*
X161040Y336283D01*
X160707Y336021D01*
X160368Y335768D01*
X160022Y335523D01*
X159671Y335286D01*
X159315Y335057D01*
X158953Y334838D01*
X158585Y334627D01*
X158213Y334425D01*
X157836Y334232D01*
X157455Y334048D01*
X157069Y333873D01*
X156679Y333708D01*
X156286Y333552D01*
X155888Y333406D01*
X155488Y333269D01*
X155084Y333142D01*
X154677Y333025D01*
X154267Y332917D01*
X153855Y332819D01*
X153441Y332732D01*
X153025Y332654D01*
X152607Y332586D01*
X152187Y332528D01*
X151767Y332481D01*
X151345Y332443D01*
X150922Y332416D01*
X150499Y332399D01*
X150076Y332392D01*
X150076Y332535D01*
X150496Y332542D01*
X150915Y332559D01*
X151335Y332586D01*
X151753Y332623D01*
X152170Y332670D01*
X152586Y332728D01*
X153001Y332795D01*
X153414Y332872D01*
X153824Y332959D01*
X154233Y333056D01*
X154639Y333162D01*
X155043Y333279D01*
X155443Y333405D01*
X155841Y333541D01*
X156235Y333686D01*
X156625Y333840D01*
X157012Y334004D01*
X157395Y334178D01*
X157773Y334360D01*
X158147Y334551D01*
X158516Y334752D01*
X158880Y334961D01*
X159239Y335179D01*
X159593Y335405D01*
X159941Y335640D01*
X160283Y335883D01*
X160620Y336135D01*
X160950Y336394D01*
X161274Y336661D01*
X161591Y336936D01*
X161902Y337219D01*
X162206Y337509D01*
X162503Y337806D01*
X162793Y338110D01*
X163075Y338421D01*
X163349Y338739D01*
X163616Y339063D01*
X163875Y339393D01*
X164126Y339730D01*
X164369Y340073D01*
X164604Y340421D01*
X164830Y340775D01*
X165047Y341134D01*
X164924Y341206D01*
X164708Y340850D01*
X164484Y340499D01*
X164251Y340153D01*
X164010Y339814D01*
X163761Y339480D01*
X163505Y339152D01*
X163240Y338830D01*
X162967Y338515D01*
X162688Y338207D01*
X162400Y337905D01*
X162106Y337611D01*
X161805Y337323D01*
X161496Y337043D01*
X161182Y336770D01*
X160860Y336505D01*
X160533Y336248D01*
X160199Y335999D01*
X159859Y335758D01*
X159514Y335525D01*
X159163Y335300D01*
X158807Y335084D01*
X158446Y334877D01*
X158080Y334678D01*
X157709Y334488D01*
X157334Y334307D01*
X156955Y334135D01*
X156571Y333973D01*
X156184Y333819D01*
X155793Y333675D01*
X155399Y333541D01*
X155002Y333416D01*
X154602Y333300D01*
X154199Y333195D01*
X153793Y333098D01*
X153386Y333012D01*
X152977Y332936D01*
X152565Y332869D01*
X152153Y332812D01*
X151739Y332766D01*
X151324Y332729D01*
X150908Y332702D01*
X150492Y332685D01*
X150076Y332678D01*
X150076Y332821D01*
X150489Y332828D01*
X150902Y332845D01*
X151314Y332871D01*
X151725Y332908D01*
X152136Y332954D01*
X152545Y333011D01*
X152952Y333077D01*
X153358Y333152D01*
X153763Y333238D01*
X154164Y333333D01*
X154564Y333438D01*
X154961Y333553D01*
X155355Y333677D01*
X155746Y333810D01*
X156133Y333953D01*
X156517Y334105D01*
X156897Y334266D01*
X157274Y334437D01*
X157646Y334616D01*
X158013Y334804D01*
X158376Y335002D01*
X158735Y335207D01*
X159088Y335421D01*
X159435Y335644D01*
X159778Y335875D01*
X160115Y336114D01*
X160446Y336362D01*
X160770Y336617D01*
X161089Y336879D01*
X161401Y337150D01*
X161707Y337428D01*
X162006Y337713D01*
X162298Y338005D01*
X162583Y338304D01*
X162860Y338610D01*
X163130Y338922D01*
X163393Y339241D01*
X163648Y339566D01*
X163894Y339897D01*
X164133Y340234D01*
X164364Y340577D01*
X164586Y340925D01*
X164800Y341278D01*
X165912Y359370D02*
X164726Y358678D01*
X164727Y358679D02*
X164514Y359030D01*
X164293Y359377D01*
X164063Y359718D01*
X163825Y360053D01*
X163580Y360382D01*
X163326Y360706D01*
X163065Y361023D01*
X162796Y361334D01*
X162520Y361638D01*
X162237Y361936D01*
X161946Y362227D01*
X161649Y362510D01*
X161345Y362787D01*
X161034Y363056D01*
X160717Y363317D01*
X160394Y363571D01*
X160065Y363817D01*
X159729Y364055D01*
X159389Y364285D01*
X159043Y364506D01*
X158691Y364720D01*
X158335Y364924D01*
X157974Y365120D01*
X157608Y365308D01*
X157238Y365486D01*
X156863Y365656D01*
X156485Y365816D01*
X156103Y365967D01*
X155717Y366110D01*
X155328Y366242D01*
X154936Y366366D01*
X154541Y366480D01*
X154144Y366584D01*
X153744Y366679D01*
X153342Y366764D01*
X152938Y366840D01*
X152532Y366905D01*
X152125Y366961D01*
X151717Y367008D01*
X151308Y367044D01*
X150897Y367070D01*
X150487Y367087D01*
X150076Y367094D01*
X150075Y368465D01*
X150076Y368466D01*
X150520Y368459D01*
X150964Y368441D01*
X151407Y368412D01*
X151850Y368373D01*
X152291Y368323D01*
X152731Y368263D01*
X153170Y368192D01*
X153607Y368110D01*
X154041Y368018D01*
X154473Y367916D01*
X154903Y367803D01*
X155330Y367680D01*
X155754Y367547D01*
X156174Y367403D01*
X156591Y367250D01*
X157004Y367086D01*
X157413Y366913D01*
X157818Y366729D01*
X158218Y366537D01*
X158613Y366334D01*
X159004Y366122D01*
X159389Y365901D01*
X159769Y365670D01*
X160143Y365431D01*
X160511Y365182D01*
X160873Y364925D01*
X161229Y364659D01*
X161579Y364385D01*
X161921Y364102D01*
X162257Y363811D01*
X162586Y363513D01*
X162907Y363206D01*
X163221Y362892D01*
X163527Y362570D01*
X163826Y362241D01*
X164116Y361905D01*
X164399Y361562D01*
X164673Y361212D01*
X164938Y360856D01*
X165195Y360493D01*
X165443Y360125D01*
X165682Y359750D01*
X165912Y359370D01*
X165788Y359298D01*
X165560Y359675D01*
X165323Y360047D01*
X165077Y360412D01*
X164822Y360772D01*
X164559Y361125D01*
X164287Y361472D01*
X164007Y361813D01*
X163719Y362146D01*
X163422Y362473D01*
X163119Y362792D01*
X162807Y363104D01*
X162488Y363408D01*
X162162Y363705D01*
X161829Y363993D01*
X161489Y364274D01*
X161142Y364546D01*
X160789Y364810D01*
X160430Y365065D01*
X160064Y365311D01*
X159693Y365549D01*
X159316Y365778D01*
X158934Y365997D01*
X158547Y366208D01*
X158154Y366409D01*
X157757Y366600D01*
X157356Y366782D01*
X156950Y366954D01*
X156540Y367116D01*
X156127Y367268D01*
X155709Y367411D01*
X155289Y367543D01*
X154865Y367665D01*
X154439Y367777D01*
X154010Y367879D01*
X153579Y367970D01*
X153146Y368051D01*
X152711Y368121D01*
X152274Y368181D01*
X151836Y368231D01*
X151397Y368270D01*
X150957Y368298D01*
X150517Y368316D01*
X150076Y368323D01*
X150076Y368180D01*
X150513Y368173D01*
X150950Y368155D01*
X151386Y368127D01*
X151822Y368088D01*
X152257Y368039D01*
X152690Y367980D01*
X153122Y367910D01*
X153551Y367830D01*
X153979Y367739D01*
X154405Y367638D01*
X154828Y367527D01*
X155248Y367406D01*
X155665Y367275D01*
X156079Y367134D01*
X156489Y366982D01*
X156896Y366821D01*
X157298Y366651D01*
X157697Y366470D01*
X158091Y366280D01*
X158480Y366081D01*
X158864Y365872D01*
X159244Y365655D01*
X159617Y365428D01*
X159986Y365192D01*
X160348Y364947D01*
X160705Y364694D01*
X161055Y364433D01*
X161399Y364162D01*
X161736Y363884D01*
X162067Y363598D01*
X162390Y363304D01*
X162707Y363002D01*
X163016Y362692D01*
X163317Y362376D01*
X163611Y362052D01*
X163897Y361721D01*
X164175Y361383D01*
X164445Y361039D01*
X164706Y360688D01*
X164959Y360332D01*
X165203Y359969D01*
X165439Y359600D01*
X165665Y359226D01*
X165541Y359154D01*
X165317Y359525D01*
X165083Y359891D01*
X164841Y360251D01*
X164590Y360605D01*
X164331Y360953D01*
X164063Y361294D01*
X163788Y361629D01*
X163504Y361957D01*
X163212Y362279D01*
X162913Y362593D01*
X162607Y362900D01*
X162293Y363199D01*
X161972Y363491D01*
X161644Y363775D01*
X161309Y364051D01*
X160968Y364319D01*
X160620Y364579D01*
X160267Y364830D01*
X159907Y365073D01*
X159542Y365306D01*
X159171Y365532D01*
X158795Y365748D01*
X158413Y365955D01*
X158027Y366152D01*
X157636Y366341D01*
X157241Y366520D01*
X156842Y366689D01*
X156438Y366849D01*
X156031Y366999D01*
X155621Y367139D01*
X155207Y367269D01*
X154790Y367389D01*
X154370Y367500D01*
X153948Y367600D01*
X153524Y367689D01*
X153097Y367769D01*
X152669Y367838D01*
X152239Y367897D01*
X151808Y367946D01*
X151376Y367984D01*
X150943Y368012D01*
X150510Y368030D01*
X150076Y368037D01*
X150076Y367894D01*
X150506Y367887D01*
X150936Y367869D01*
X151366Y367842D01*
X151794Y367804D01*
X152222Y367755D01*
X152648Y367697D01*
X153073Y367628D01*
X153496Y367549D01*
X153917Y367460D01*
X154336Y367361D01*
X154752Y367251D01*
X155166Y367132D01*
X155576Y367003D01*
X155984Y366864D01*
X156388Y366715D01*
X156788Y366557D01*
X157184Y366389D01*
X157576Y366211D01*
X157964Y366024D01*
X158347Y365828D01*
X158725Y365623D01*
X159098Y365408D01*
X159466Y365185D01*
X159829Y364953D01*
X160185Y364712D01*
X160536Y364463D01*
X160881Y364206D01*
X161219Y363940D01*
X161551Y363666D01*
X161877Y363384D01*
X162195Y363095D01*
X162507Y362798D01*
X162811Y362493D01*
X163107Y362181D01*
X163397Y361863D01*
X163678Y361537D01*
X163952Y361205D01*
X164217Y360866D01*
X164474Y360521D01*
X164723Y360170D01*
X164963Y359813D01*
X165195Y359450D01*
X165418Y359082D01*
X165294Y359010D01*
X165073Y359375D01*
X164844Y359735D01*
X164605Y360089D01*
X164358Y360437D01*
X164103Y360780D01*
X163840Y361116D01*
X163569Y361445D01*
X163289Y361768D01*
X163003Y362084D01*
X162708Y362394D01*
X162406Y362696D01*
X162098Y362990D01*
X161782Y363277D01*
X161459Y363557D01*
X161130Y363829D01*
X160794Y364092D01*
X160452Y364348D01*
X160104Y364595D01*
X159750Y364834D01*
X159390Y365064D01*
X159025Y365285D01*
X158655Y365498D01*
X158280Y365702D01*
X157900Y365896D01*
X157515Y366082D01*
X157127Y366258D01*
X156734Y366424D01*
X156337Y366581D01*
X155936Y366729D01*
X155532Y366867D01*
X155125Y366995D01*
X154715Y367113D01*
X154302Y367222D01*
X153886Y367320D01*
X153469Y367409D01*
X153049Y367487D01*
X152628Y367555D01*
X152205Y367614D01*
X151781Y367661D01*
X151355Y367699D01*
X150929Y367727D01*
X150503Y367744D01*
X150076Y367751D01*
X150076Y367608D01*
X150499Y367601D01*
X150922Y367584D01*
X151345Y367557D01*
X151767Y367519D01*
X152187Y367472D01*
X152607Y367414D01*
X153025Y367346D01*
X153441Y367268D01*
X153855Y367181D01*
X154267Y367083D01*
X154677Y366975D01*
X155084Y366858D01*
X155488Y366731D01*
X155888Y366594D01*
X156286Y366448D01*
X156679Y366292D01*
X157069Y366127D01*
X157455Y365952D01*
X157836Y365768D01*
X158213Y365575D01*
X158585Y365373D01*
X158953Y365162D01*
X159315Y364943D01*
X159671Y364714D01*
X160022Y364477D01*
X160368Y364232D01*
X160707Y363979D01*
X161040Y363717D01*
X161366Y363448D01*
X161687Y363171D01*
X162000Y362886D01*
X162306Y362594D01*
X162606Y362294D01*
X162898Y361987D01*
X163182Y361674D01*
X163459Y361353D01*
X163728Y361026D01*
X163989Y360693D01*
X164242Y360354D01*
X164487Y360008D01*
X164724Y359657D01*
X164952Y359300D01*
X165171Y358938D01*
X165047Y358866D01*
X164830Y359225D01*
X164604Y359579D01*
X164369Y359927D01*
X164126Y360270D01*
X163875Y360607D01*
X163616Y360937D01*
X163349Y361261D01*
X163075Y361579D01*
X162793Y361890D01*
X162503Y362194D01*
X162206Y362491D01*
X161902Y362781D01*
X161591Y363064D01*
X161274Y363339D01*
X160950Y363606D01*
X160620Y363865D01*
X160283Y364117D01*
X159941Y364360D01*
X159593Y364595D01*
X159239Y364821D01*
X158880Y365039D01*
X158516Y365248D01*
X158147Y365449D01*
X157773Y365640D01*
X157395Y365822D01*
X157012Y365996D01*
X156625Y366160D01*
X156235Y366314D01*
X155841Y366459D01*
X155443Y366595D01*
X155043Y366721D01*
X154639Y366838D01*
X154233Y366944D01*
X153824Y367041D01*
X153414Y367128D01*
X153001Y367205D01*
X152586Y367272D01*
X152170Y367330D01*
X151753Y367377D01*
X151335Y367414D01*
X150915Y367441D01*
X150496Y367458D01*
X150076Y367465D01*
X150076Y367322D01*
X150492Y367315D01*
X150908Y367298D01*
X151324Y367271D01*
X151739Y367234D01*
X152153Y367188D01*
X152565Y367131D01*
X152977Y367064D01*
X153386Y366988D01*
X153793Y366902D01*
X154199Y366805D01*
X154602Y366700D01*
X155002Y366584D01*
X155399Y366459D01*
X155793Y366325D01*
X156184Y366181D01*
X156571Y366027D01*
X156955Y365865D01*
X157334Y365693D01*
X157709Y365512D01*
X158080Y365322D01*
X158446Y365123D01*
X158807Y364916D01*
X159163Y364700D01*
X159514Y364475D01*
X159859Y364242D01*
X160199Y364001D01*
X160533Y363752D01*
X160860Y363495D01*
X161182Y363230D01*
X161496Y362957D01*
X161805Y362677D01*
X162106Y362389D01*
X162400Y362095D01*
X162688Y361793D01*
X162967Y361485D01*
X163240Y361170D01*
X163505Y360848D01*
X163761Y360520D01*
X164010Y360186D01*
X164251Y359847D01*
X164484Y359501D01*
X164708Y359150D01*
X164924Y358794D01*
X164800Y358722D01*
X164586Y359075D01*
X164364Y359423D01*
X164133Y359766D01*
X163894Y360103D01*
X163648Y360434D01*
X163393Y360759D01*
X163130Y361078D01*
X162860Y361390D01*
X162583Y361696D01*
X162298Y361995D01*
X162006Y362287D01*
X161707Y362572D01*
X161401Y362850D01*
X161089Y363121D01*
X160770Y363383D01*
X160446Y363638D01*
X160115Y363886D01*
X159778Y364125D01*
X159435Y364356D01*
X159088Y364579D01*
X158735Y364793D01*
X158376Y364998D01*
X158013Y365196D01*
X157646Y365384D01*
X157274Y365563D01*
X156897Y365734D01*
X156517Y365895D01*
X156133Y366047D01*
X155746Y366190D01*
X155355Y366323D01*
X154961Y366447D01*
X154564Y366562D01*
X154164Y366667D01*
X153763Y366762D01*
X153358Y366848D01*
X152952Y366923D01*
X152545Y366989D01*
X152136Y367046D01*
X151725Y367092D01*
X151314Y367129D01*
X150902Y367155D01*
X150489Y367172D01*
X150076Y367179D01*
X149925Y368465D02*
X149925Y367093D01*
X149924Y367094D02*
X149513Y367087D01*
X149103Y367070D01*
X148692Y367044D01*
X148283Y367008D01*
X147875Y366961D01*
X147468Y366905D01*
X147062Y366840D01*
X146658Y366764D01*
X146256Y366679D01*
X145856Y366584D01*
X145459Y366480D01*
X145064Y366366D01*
X144672Y366242D01*
X144283Y366110D01*
X143897Y365967D01*
X143515Y365816D01*
X143137Y365656D01*
X142762Y365486D01*
X142392Y365308D01*
X142026Y365120D01*
X141665Y364924D01*
X141309Y364720D01*
X140957Y364506D01*
X140611Y364285D01*
X140271Y364055D01*
X139935Y363817D01*
X139606Y363571D01*
X139283Y363317D01*
X138966Y363056D01*
X138655Y362787D01*
X138351Y362510D01*
X138054Y362227D01*
X137763Y361936D01*
X137480Y361638D01*
X137204Y361334D01*
X136935Y361023D01*
X136674Y360706D01*
X136420Y360382D01*
X136175Y360053D01*
X135937Y359718D01*
X135707Y359377D01*
X135486Y359030D01*
X135273Y358679D01*
X134088Y359370D01*
X134318Y359750D01*
X134557Y360125D01*
X134805Y360493D01*
X135062Y360856D01*
X135327Y361212D01*
X135601Y361562D01*
X135884Y361905D01*
X136174Y362241D01*
X136473Y362570D01*
X136779Y362892D01*
X137093Y363206D01*
X137414Y363513D01*
X137743Y363811D01*
X138079Y364102D01*
X138421Y364385D01*
X138771Y364659D01*
X139127Y364925D01*
X139489Y365182D01*
X139857Y365431D01*
X140231Y365670D01*
X140611Y365901D01*
X140996Y366122D01*
X141387Y366334D01*
X141782Y366537D01*
X142182Y366729D01*
X142587Y366913D01*
X142996Y367086D01*
X143409Y367250D01*
X143826Y367403D01*
X144246Y367547D01*
X144670Y367680D01*
X145097Y367803D01*
X145527Y367916D01*
X145959Y368018D01*
X146393Y368110D01*
X146830Y368192D01*
X147269Y368263D01*
X147709Y368323D01*
X148150Y368373D01*
X148593Y368412D01*
X149036Y368441D01*
X149480Y368459D01*
X149924Y368466D01*
X149924Y368323D01*
X149483Y368316D01*
X149043Y368298D01*
X148603Y368270D01*
X148164Y368231D01*
X147726Y368181D01*
X147289Y368121D01*
X146854Y368051D01*
X146421Y367970D01*
X145990Y367879D01*
X145561Y367777D01*
X145135Y367665D01*
X144711Y367543D01*
X144291Y367411D01*
X143873Y367268D01*
X143460Y367116D01*
X143050Y366954D01*
X142644Y366782D01*
X142243Y366600D01*
X141846Y366409D01*
X141453Y366208D01*
X141066Y365997D01*
X140684Y365778D01*
X140307Y365549D01*
X139936Y365311D01*
X139570Y365065D01*
X139211Y364810D01*
X138858Y364546D01*
X138511Y364274D01*
X138171Y363993D01*
X137838Y363705D01*
X137512Y363408D01*
X137193Y363104D01*
X136881Y362792D01*
X136578Y362473D01*
X136281Y362146D01*
X135993Y361813D01*
X135713Y361472D01*
X135441Y361125D01*
X135178Y360772D01*
X134923Y360412D01*
X134677Y360047D01*
X134440Y359675D01*
X134212Y359298D01*
X134335Y359226D01*
X134561Y359600D01*
X134797Y359969D01*
X135041Y360332D01*
X135294Y360688D01*
X135555Y361039D01*
X135825Y361383D01*
X136103Y361721D01*
X136389Y362052D01*
X136683Y362376D01*
X136984Y362692D01*
X137293Y363002D01*
X137610Y363304D01*
X137933Y363598D01*
X138264Y363884D01*
X138601Y364162D01*
X138945Y364433D01*
X139295Y364694D01*
X139652Y364947D01*
X140014Y365192D01*
X140383Y365428D01*
X140756Y365655D01*
X141136Y365872D01*
X141520Y366081D01*
X141909Y366280D01*
X142303Y366470D01*
X142702Y366651D01*
X143104Y366821D01*
X143511Y366982D01*
X143921Y367134D01*
X144335Y367275D01*
X144752Y367406D01*
X145172Y367527D01*
X145595Y367638D01*
X146021Y367739D01*
X146449Y367830D01*
X146878Y367910D01*
X147310Y367980D01*
X147743Y368039D01*
X148178Y368088D01*
X148614Y368127D01*
X149050Y368155D01*
X149487Y368173D01*
X149924Y368180D01*
X149924Y368037D01*
X149490Y368030D01*
X149057Y368012D01*
X148624Y367984D01*
X148192Y367946D01*
X147761Y367897D01*
X147331Y367838D01*
X146903Y367769D01*
X146476Y367689D01*
X146052Y367600D01*
X145630Y367500D01*
X145210Y367389D01*
X144793Y367269D01*
X144379Y367139D01*
X143969Y366999D01*
X143562Y366849D01*
X143158Y366689D01*
X142759Y366520D01*
X142364Y366341D01*
X141973Y366152D01*
X141587Y365955D01*
X141205Y365748D01*
X140829Y365532D01*
X140458Y365306D01*
X140093Y365073D01*
X139733Y364830D01*
X139380Y364579D01*
X139032Y364319D01*
X138691Y364051D01*
X138356Y363775D01*
X138028Y363491D01*
X137707Y363199D01*
X137393Y362900D01*
X137087Y362593D01*
X136788Y362279D01*
X136496Y361957D01*
X136212Y361629D01*
X135937Y361294D01*
X135669Y360953D01*
X135410Y360605D01*
X135159Y360251D01*
X134917Y359891D01*
X134683Y359525D01*
X134459Y359154D01*
X134582Y359082D01*
X134805Y359450D01*
X135037Y359813D01*
X135277Y360170D01*
X135526Y360521D01*
X135783Y360866D01*
X136048Y361205D01*
X136322Y361537D01*
X136603Y361863D01*
X136893Y362181D01*
X137189Y362493D01*
X137493Y362798D01*
X137805Y363095D01*
X138123Y363384D01*
X138449Y363666D01*
X138781Y363940D01*
X139119Y364206D01*
X139464Y364463D01*
X139815Y364712D01*
X140171Y364953D01*
X140534Y365185D01*
X140902Y365408D01*
X141275Y365623D01*
X141653Y365828D01*
X142036Y366024D01*
X142424Y366211D01*
X142816Y366389D01*
X143212Y366557D01*
X143612Y366715D01*
X144016Y366864D01*
X144424Y367003D01*
X144834Y367132D01*
X145248Y367251D01*
X145664Y367361D01*
X146083Y367460D01*
X146504Y367549D01*
X146927Y367628D01*
X147352Y367697D01*
X147778Y367755D01*
X148206Y367804D01*
X148634Y367842D01*
X149064Y367869D01*
X149494Y367887D01*
X149924Y367894D01*
X149924Y367751D01*
X149497Y367744D01*
X149071Y367727D01*
X148645Y367699D01*
X148219Y367661D01*
X147795Y367614D01*
X147372Y367555D01*
X146951Y367487D01*
X146531Y367409D01*
X146114Y367320D01*
X145698Y367222D01*
X145285Y367113D01*
X144875Y366995D01*
X144468Y366867D01*
X144064Y366729D01*
X143663Y366581D01*
X143266Y366424D01*
X142873Y366258D01*
X142485Y366082D01*
X142100Y365896D01*
X141720Y365702D01*
X141345Y365498D01*
X140975Y365285D01*
X140610Y365064D01*
X140250Y364834D01*
X139896Y364595D01*
X139548Y364348D01*
X139206Y364092D01*
X138870Y363829D01*
X138541Y363557D01*
X138218Y363277D01*
X137902Y362990D01*
X137594Y362696D01*
X137292Y362394D01*
X136997Y362084D01*
X136711Y361768D01*
X136431Y361445D01*
X136160Y361116D01*
X135897Y360780D01*
X135642Y360437D01*
X135395Y360089D01*
X135156Y359735D01*
X134927Y359375D01*
X134706Y359010D01*
X134829Y358938D01*
X135048Y359300D01*
X135276Y359657D01*
X135513Y360008D01*
X135758Y360354D01*
X136011Y360693D01*
X136272Y361026D01*
X136541Y361353D01*
X136818Y361674D01*
X137102Y361987D01*
X137394Y362294D01*
X137694Y362594D01*
X138000Y362886D01*
X138313Y363171D01*
X138634Y363448D01*
X138960Y363717D01*
X139293Y363979D01*
X139632Y364232D01*
X139978Y364477D01*
X140329Y364714D01*
X140685Y364943D01*
X141047Y365162D01*
X141415Y365373D01*
X141787Y365575D01*
X142164Y365768D01*
X142545Y365952D01*
X142931Y366127D01*
X143321Y366292D01*
X143714Y366448D01*
X144112Y366594D01*
X144512Y366731D01*
X144916Y366858D01*
X145323Y366975D01*
X145733Y367083D01*
X146145Y367181D01*
X146559Y367268D01*
X146975Y367346D01*
X147393Y367414D01*
X147813Y367472D01*
X148233Y367519D01*
X148655Y367557D01*
X149078Y367584D01*
X149501Y367601D01*
X149924Y367608D01*
X149924Y367465D01*
X149504Y367458D01*
X149085Y367441D01*
X148665Y367414D01*
X148247Y367377D01*
X147830Y367330D01*
X147414Y367272D01*
X146999Y367205D01*
X146586Y367128D01*
X146176Y367041D01*
X145767Y366944D01*
X145361Y366838D01*
X144957Y366721D01*
X144557Y366595D01*
X144159Y366459D01*
X143765Y366314D01*
X143375Y366160D01*
X142988Y365996D01*
X142605Y365822D01*
X142227Y365640D01*
X141853Y365449D01*
X141484Y365248D01*
X141120Y365039D01*
X140761Y364821D01*
X140407Y364595D01*
X140059Y364360D01*
X139717Y364117D01*
X139380Y363865D01*
X139050Y363606D01*
X138726Y363339D01*
X138409Y363064D01*
X138098Y362781D01*
X137794Y362491D01*
X137497Y362194D01*
X137207Y361890D01*
X136925Y361579D01*
X136651Y361261D01*
X136384Y360937D01*
X136125Y360607D01*
X135874Y360270D01*
X135631Y359927D01*
X135396Y359579D01*
X135170Y359225D01*
X134953Y358866D01*
X135076Y358794D01*
X135292Y359150D01*
X135516Y359501D01*
X135749Y359847D01*
X135990Y360186D01*
X136239Y360520D01*
X136495Y360848D01*
X136760Y361170D01*
X137033Y361485D01*
X137312Y361793D01*
X137600Y362095D01*
X137894Y362389D01*
X138195Y362677D01*
X138504Y362957D01*
X138818Y363230D01*
X139140Y363495D01*
X139467Y363752D01*
X139801Y364001D01*
X140141Y364242D01*
X140486Y364475D01*
X140837Y364700D01*
X141193Y364916D01*
X141554Y365123D01*
X141920Y365322D01*
X142291Y365512D01*
X142666Y365693D01*
X143045Y365865D01*
X143429Y366027D01*
X143816Y366181D01*
X144207Y366325D01*
X144601Y366459D01*
X144998Y366584D01*
X145398Y366700D01*
X145801Y366805D01*
X146207Y366902D01*
X146614Y366988D01*
X147023Y367064D01*
X147435Y367131D01*
X147847Y367188D01*
X148261Y367234D01*
X148676Y367271D01*
X149092Y367298D01*
X149508Y367315D01*
X149924Y367322D01*
X149924Y367179D01*
X149511Y367172D01*
X149098Y367155D01*
X148686Y367129D01*
X148275Y367092D01*
X147864Y367046D01*
X147455Y366989D01*
X147048Y366923D01*
X146642Y366848D01*
X146237Y366762D01*
X145836Y366667D01*
X145436Y366562D01*
X145039Y366447D01*
X144645Y366323D01*
X144254Y366190D01*
X143867Y366047D01*
X143483Y365895D01*
X143103Y365734D01*
X142726Y365563D01*
X142354Y365384D01*
X141987Y365196D01*
X141624Y364998D01*
X141265Y364793D01*
X140912Y364579D01*
X140565Y364356D01*
X140222Y364125D01*
X139885Y363886D01*
X139554Y363638D01*
X139230Y363383D01*
X138911Y363121D01*
X138599Y362850D01*
X138293Y362572D01*
X137994Y362287D01*
X137702Y361995D01*
X137417Y361696D01*
X137140Y361390D01*
X136870Y361078D01*
X136607Y360759D01*
X136352Y360434D01*
X136106Y360103D01*
X135867Y359766D01*
X135636Y359423D01*
X135414Y359075D01*
X135200Y358722D01*
D10*
X123330Y350000D02*
X123338Y350655D01*
X123362Y351309D01*
X123402Y351962D01*
X123458Y352614D01*
X123531Y353265D01*
X123619Y353913D01*
X123723Y354560D01*
X123842Y355203D01*
X123978Y355843D01*
X124129Y356480D01*
X124296Y357113D01*
X124478Y357742D01*
X124676Y358366D01*
X124889Y358985D01*
X125117Y359598D01*
X125360Y360206D01*
X125618Y360808D01*
X125891Y361403D01*
X126178Y361991D01*
X126479Y362572D01*
X126795Y363146D01*
X127124Y363711D01*
X127468Y364268D01*
X127825Y364817D01*
X128195Y365357D01*
X128578Y365887D01*
X128975Y366408D01*
X129384Y366919D01*
X129805Y367420D01*
X130239Y367910D01*
X130684Y368390D01*
X131141Y368859D01*
X131610Y369316D01*
X132090Y369761D01*
X132580Y370195D01*
X133081Y370616D01*
X133592Y371025D01*
X134113Y371422D01*
X134643Y371805D01*
X135183Y372175D01*
X135732Y372532D01*
X136289Y372876D01*
X136854Y373205D01*
X137428Y373521D01*
X138009Y373822D01*
X138597Y374109D01*
X139192Y374382D01*
X139794Y374640D01*
X140402Y374883D01*
X141015Y375111D01*
X141634Y375324D01*
X142258Y375522D01*
X142887Y375704D01*
X143520Y375871D01*
X144157Y376022D01*
X144797Y376158D01*
X145440Y376277D01*
X146087Y376381D01*
X146735Y376469D01*
X147386Y376542D01*
X148038Y376598D01*
X148691Y376638D01*
X149345Y376662D01*
X150000Y376670D01*
X150655Y376662D01*
X151309Y376638D01*
X151962Y376598D01*
X152614Y376542D01*
X153265Y376469D01*
X153913Y376381D01*
X154560Y376277D01*
X155203Y376158D01*
X155843Y376022D01*
X156480Y375871D01*
X157113Y375704D01*
X157742Y375522D01*
X158366Y375324D01*
X158985Y375111D01*
X159598Y374883D01*
X160206Y374640D01*
X160808Y374382D01*
X161403Y374109D01*
X161991Y373822D01*
X162572Y373521D01*
X163146Y373205D01*
X163711Y372876D01*
X164268Y372532D01*
X164817Y372175D01*
X165357Y371805D01*
X165887Y371422D01*
X166408Y371025D01*
X166919Y370616D01*
X167420Y370195D01*
X167910Y369761D01*
X168390Y369316D01*
X168859Y368859D01*
X169316Y368390D01*
X169761Y367910D01*
X170195Y367420D01*
X170616Y366919D01*
X171025Y366408D01*
X171422Y365887D01*
X171805Y365357D01*
X172175Y364817D01*
X172532Y364268D01*
X172876Y363711D01*
X173205Y363146D01*
X173521Y362572D01*
X173822Y361991D01*
X174109Y361403D01*
X174382Y360808D01*
X174640Y360206D01*
X174883Y359598D01*
X175111Y358985D01*
X175324Y358366D01*
X175522Y357742D01*
X175704Y357113D01*
X175871Y356480D01*
X176022Y355843D01*
X176158Y355203D01*
X176277Y354560D01*
X176381Y353913D01*
X176469Y353265D01*
X176542Y352614D01*
X176598Y351962D01*
X176638Y351309D01*
X176662Y350655D01*
X176670Y350000D01*
X176662Y349345D01*
X176638Y348691D01*
X176598Y348038D01*
X176542Y347386D01*
X176469Y346735D01*
X176381Y346087D01*
X176277Y345440D01*
X176158Y344797D01*
X176022Y344157D01*
X175871Y343520D01*
X175704Y342887D01*
X175522Y342258D01*
X175324Y341634D01*
X175111Y341015D01*
X174883Y340402D01*
X174640Y339794D01*
X174382Y339192D01*
X174109Y338597D01*
X173822Y338009D01*
X173521Y337428D01*
X173205Y336854D01*
X172876Y336289D01*
X172532Y335732D01*
X172175Y335183D01*
X171805Y334643D01*
X171422Y334113D01*
X171025Y333592D01*
X170616Y333081D01*
X170195Y332580D01*
X169761Y332090D01*
X169316Y331610D01*
X168859Y331141D01*
X168390Y330684D01*
X167910Y330239D01*
X167420Y329805D01*
X166919Y329384D01*
X166408Y328975D01*
X165887Y328578D01*
X165357Y328195D01*
X164817Y327825D01*
X164268Y327468D01*
X163711Y327124D01*
X163146Y326795D01*
X162572Y326479D01*
X161991Y326178D01*
X161403Y325891D01*
X160808Y325618D01*
X160206Y325360D01*
X159598Y325117D01*
X158985Y324889D01*
X158366Y324676D01*
X157742Y324478D01*
X157113Y324296D01*
X156480Y324129D01*
X155843Y323978D01*
X155203Y323842D01*
X154560Y323723D01*
X153913Y323619D01*
X153265Y323531D01*
X152614Y323458D01*
X151962Y323402D01*
X151309Y323362D01*
X150655Y323338D01*
X150000Y323330D01*
X149345Y323338D01*
X148691Y323362D01*
X148038Y323402D01*
X147386Y323458D01*
X146735Y323531D01*
X146087Y323619D01*
X145440Y323723D01*
X144797Y323842D01*
X144157Y323978D01*
X143520Y324129D01*
X142887Y324296D01*
X142258Y324478D01*
X141634Y324676D01*
X141015Y324889D01*
X140402Y325117D01*
X139794Y325360D01*
X139192Y325618D01*
X138597Y325891D01*
X138009Y326178D01*
X137428Y326479D01*
X136854Y326795D01*
X136289Y327124D01*
X135732Y327468D01*
X135183Y327825D01*
X134643Y328195D01*
X134113Y328578D01*
X133592Y328975D01*
X133081Y329384D01*
X132580Y329805D01*
X132090Y330239D01*
X131610Y330684D01*
X131141Y331141D01*
X130684Y331610D01*
X130239Y332090D01*
X129805Y332580D01*
X129384Y333081D01*
X128975Y333592D01*
X128578Y334113D01*
X128195Y334643D01*
X127825Y335183D01*
X127468Y335732D01*
X127124Y336289D01*
X126795Y336854D01*
X126479Y337428D01*
X126178Y338009D01*
X125891Y338597D01*
X125618Y339192D01*
X125360Y339794D01*
X125117Y340402D01*
X124889Y341015D01*
X124676Y341634D01*
X124478Y342258D01*
X124296Y342887D01*
X124129Y343520D01*
X123978Y344157D01*
X123842Y344797D01*
X123723Y345440D01*
X123619Y346087D01*
X123531Y346735D01*
X123458Y347386D01*
X123402Y348038D01*
X123362Y348691D01*
X123338Y349345D01*
X123330Y350000D01*
D14*
X125870Y350000D02*
X125877Y350592D01*
X125899Y351184D01*
X125935Y351775D01*
X125986Y352365D01*
X126051Y352954D01*
X126131Y353541D01*
X126225Y354125D01*
X126334Y354708D01*
X126456Y355287D01*
X126593Y355863D01*
X126744Y356436D01*
X126909Y357005D01*
X127088Y357569D01*
X127281Y358129D01*
X127487Y358684D01*
X127707Y359234D01*
X127940Y359778D01*
X128187Y360317D01*
X128446Y360849D01*
X128719Y361375D01*
X129005Y361894D01*
X129303Y362405D01*
X129614Y362909D01*
X129937Y363406D01*
X130272Y363894D01*
X130619Y364374D01*
X130977Y364846D01*
X131347Y365308D01*
X131729Y365761D01*
X132121Y366205D01*
X132524Y366639D01*
X132938Y367062D01*
X133361Y367476D01*
X133795Y367879D01*
X134239Y368271D01*
X134692Y368653D01*
X135154Y369023D01*
X135626Y369381D01*
X136106Y369728D01*
X136594Y370063D01*
X137091Y370386D01*
X137595Y370697D01*
X138106Y370995D01*
X138625Y371281D01*
X139151Y371554D01*
X139683Y371813D01*
X140222Y372060D01*
X140766Y372293D01*
X141316Y372513D01*
X141871Y372719D01*
X142431Y372912D01*
X142995Y373091D01*
X143564Y373256D01*
X144137Y373407D01*
X144713Y373544D01*
X145292Y373666D01*
X145875Y373775D01*
X146459Y373869D01*
X147046Y373949D01*
X147635Y374014D01*
X148225Y374065D01*
X148816Y374101D01*
X149408Y374123D01*
X150000Y374130D01*
X150592Y374123D01*
X151184Y374101D01*
X151775Y374065D01*
X152365Y374014D01*
X152954Y373949D01*
X153541Y373869D01*
X154125Y373775D01*
X154708Y373666D01*
X155287Y373544D01*
X155863Y373407D01*
X156436Y373256D01*
X157005Y373091D01*
X157569Y372912D01*
X158129Y372719D01*
X158684Y372513D01*
X159234Y372293D01*
X159778Y372060D01*
X160317Y371813D01*
X160849Y371554D01*
X161375Y371281D01*
X161894Y370995D01*
X162405Y370697D01*
X162909Y370386D01*
X163406Y370063D01*
X163894Y369728D01*
X164374Y369381D01*
X164846Y369023D01*
X165308Y368653D01*
X165761Y368271D01*
X166205Y367879D01*
X166639Y367476D01*
X167062Y367062D01*
X167476Y366639D01*
X167879Y366205D01*
X168271Y365761D01*
X168653Y365308D01*
X169023Y364846D01*
X169381Y364374D01*
X169728Y363894D01*
X170063Y363406D01*
X170386Y362909D01*
X170697Y362405D01*
X170995Y361894D01*
X171281Y361375D01*
X171554Y360849D01*
X171813Y360317D01*
X172060Y359778D01*
X172293Y359234D01*
X172513Y358684D01*
X172719Y358129D01*
X172912Y357569D01*
X173091Y357005D01*
X173256Y356436D01*
X173407Y355863D01*
X173544Y355287D01*
X173666Y354708D01*
X173775Y354125D01*
X173869Y353541D01*
X173949Y352954D01*
X174014Y352365D01*
X174065Y351775D01*
X174101Y351184D01*
X174123Y350592D01*
X174130Y350000D01*
X174123Y349408D01*
X174101Y348816D01*
X174065Y348225D01*
X174014Y347635D01*
X173949Y347046D01*
X173869Y346459D01*
X173775Y345875D01*
X173666Y345292D01*
X173544Y344713D01*
X173407Y344137D01*
X173256Y343564D01*
X173091Y342995D01*
X172912Y342431D01*
X172719Y341871D01*
X172513Y341316D01*
X172293Y340766D01*
X172060Y340222D01*
X171813Y339683D01*
X171554Y339151D01*
X171281Y338625D01*
X170995Y338106D01*
X170697Y337595D01*
X170386Y337091D01*
X170063Y336594D01*
X169728Y336106D01*
X169381Y335626D01*
X169023Y335154D01*
X168653Y334692D01*
X168271Y334239D01*
X167879Y333795D01*
X167476Y333361D01*
X167062Y332938D01*
X166639Y332524D01*
X166205Y332121D01*
X165761Y331729D01*
X165308Y331347D01*
X164846Y330977D01*
X164374Y330619D01*
X163894Y330272D01*
X163406Y329937D01*
X162909Y329614D01*
X162405Y329303D01*
X161894Y329005D01*
X161375Y328719D01*
X160849Y328446D01*
X160317Y328187D01*
X159778Y327940D01*
X159234Y327707D01*
X158684Y327487D01*
X158129Y327281D01*
X157569Y327088D01*
X157005Y326909D01*
X156436Y326744D01*
X155863Y326593D01*
X155287Y326456D01*
X154708Y326334D01*
X154125Y326225D01*
X153541Y326131D01*
X152954Y326051D01*
X152365Y325986D01*
X151775Y325935D01*
X151184Y325899D01*
X150592Y325877D01*
X150000Y325870D01*
X149408Y325877D01*
X148816Y325899D01*
X148225Y325935D01*
X147635Y325986D01*
X147046Y326051D01*
X146459Y326131D01*
X145875Y326225D01*
X145292Y326334D01*
X144713Y326456D01*
X144137Y326593D01*
X143564Y326744D01*
X142995Y326909D01*
X142431Y327088D01*
X141871Y327281D01*
X141316Y327487D01*
X140766Y327707D01*
X140222Y327940D01*
X139683Y328187D01*
X139151Y328446D01*
X138625Y328719D01*
X138106Y329005D01*
X137595Y329303D01*
X137091Y329614D01*
X136594Y329937D01*
X136106Y330272D01*
X135626Y330619D01*
X135154Y330977D01*
X134692Y331347D01*
X134239Y331729D01*
X133795Y332121D01*
X133361Y332524D01*
X132938Y332938D01*
X132524Y333361D01*
X132121Y333795D01*
X131729Y334239D01*
X131347Y334692D01*
X130977Y335154D01*
X130619Y335626D01*
X130272Y336106D01*
X129937Y336594D01*
X129614Y337091D01*
X129303Y337595D01*
X129005Y338106D01*
X128719Y338625D01*
X128446Y339151D01*
X128187Y339683D01*
X127940Y340222D01*
X127707Y340766D01*
X127487Y341316D01*
X127281Y341871D01*
X127088Y342431D01*
X126909Y342995D01*
X126744Y343564D01*
X126593Y344137D01*
X126456Y344713D01*
X126334Y345292D01*
X126225Y345875D01*
X126131Y346459D01*
X126051Y347046D01*
X125986Y347635D01*
X125935Y348225D01*
X125899Y348816D01*
X125877Y349408D01*
X125870Y350000D01*
D12*
X126559Y318895D02*
X126559Y307455D01*
X134186Y307455D01*
X138253Y318895D02*
X145880Y318895D01*
X138253Y318895D02*
X138253Y307455D01*
X145880Y307455D01*
X142066Y313175D02*
X138253Y313175D01*
X149947Y318895D02*
X149947Y307455D01*
X155667Y307455D01*
X157573Y309362D01*
X157573Y316988D01*
X155667Y318895D01*
X149947Y318895D01*
X161641Y315082D02*
X165454Y318895D01*
X165454Y307455D01*
X161641Y307455D02*
X169267Y307455D01*
D10*
X297930Y333800D02*
X402070Y333800D01*
X402070Y492550D02*
X297930Y492550D01*
X402070Y458260D02*
X402070Y333800D01*
X402070Y458260D02*
X393180Y458260D01*
X393180Y473500D01*
X402070Y473500D01*
X402070Y492550D01*
X297930Y458260D02*
X297930Y333800D01*
X297930Y458260D02*
X306820Y458260D01*
X306820Y473500D01*
X297930Y473500D01*
X297930Y492550D01*
D16*
X304280Y340150D02*
X395720Y340150D01*
X395720Y422700D01*
X304280Y422700D01*
X304280Y340150D01*
D10*
X331966Y458260D02*
X331971Y458703D01*
X331988Y459145D01*
X332015Y459587D01*
X332053Y460028D01*
X332102Y460468D01*
X332161Y460906D01*
X332232Y461343D01*
X332313Y461778D01*
X332404Y462211D01*
X332506Y462642D01*
X332619Y463070D01*
X332743Y463495D01*
X332876Y463917D01*
X333020Y464335D01*
X333174Y464750D01*
X333339Y465161D01*
X333513Y465568D01*
X333697Y465971D01*
X333892Y466368D01*
X334095Y466761D01*
X334309Y467149D01*
X334532Y467531D01*
X334764Y467908D01*
X335005Y468279D01*
X335256Y468644D01*
X335515Y469003D01*
X335783Y469355D01*
X336060Y469701D01*
X336344Y470039D01*
X336638Y470371D01*
X336939Y470695D01*
X337248Y471012D01*
X337565Y471321D01*
X337889Y471622D01*
X338221Y471916D01*
X338559Y472200D01*
X338905Y472477D01*
X339257Y472745D01*
X339616Y473004D01*
X339981Y473255D01*
X340352Y473496D01*
X340729Y473728D01*
X341111Y473951D01*
X341499Y474165D01*
X341892Y474368D01*
X342289Y474563D01*
X342692Y474747D01*
X343099Y474921D01*
X343510Y475086D01*
X343925Y475240D01*
X344343Y475384D01*
X344765Y475517D01*
X345190Y475641D01*
X345618Y475754D01*
X346049Y475856D01*
X346482Y475947D01*
X346917Y476028D01*
X347354Y476099D01*
X347792Y476158D01*
X348232Y476207D01*
X348673Y476245D01*
X349115Y476272D01*
X349557Y476289D01*
X350000Y476294D01*
X350443Y476289D01*
X350885Y476272D01*
X351327Y476245D01*
X351768Y476207D01*
X352208Y476158D01*
X352646Y476099D01*
X353083Y476028D01*
X353518Y475947D01*
X353951Y475856D01*
X354382Y475754D01*
X354810Y475641D01*
X355235Y475517D01*
X355657Y475384D01*
X356075Y475240D01*
X356490Y475086D01*
X356901Y474921D01*
X357308Y474747D01*
X357711Y474563D01*
X358108Y474368D01*
X358501Y474165D01*
X358889Y473951D01*
X359271Y473728D01*
X359648Y473496D01*
X360019Y473255D01*
X360384Y473004D01*
X360743Y472745D01*
X361095Y472477D01*
X361441Y472200D01*
X361779Y471916D01*
X362111Y471622D01*
X362435Y471321D01*
X362752Y471012D01*
X363061Y470695D01*
X363362Y470371D01*
X363656Y470039D01*
X363940Y469701D01*
X364217Y469355D01*
X364485Y469003D01*
X364744Y468644D01*
X364995Y468279D01*
X365236Y467908D01*
X365468Y467531D01*
X365691Y467149D01*
X365905Y466761D01*
X366108Y466368D01*
X366303Y465971D01*
X366487Y465568D01*
X366661Y465161D01*
X366826Y464750D01*
X366980Y464335D01*
X367124Y463917D01*
X367257Y463495D01*
X367381Y463070D01*
X367494Y462642D01*
X367596Y462211D01*
X367687Y461778D01*
X367768Y461343D01*
X367839Y460906D01*
X367898Y460468D01*
X367947Y460028D01*
X367985Y459587D01*
X368012Y459145D01*
X368029Y458703D01*
X368034Y458260D01*
X368029Y457817D01*
X368012Y457375D01*
X367985Y456933D01*
X367947Y456492D01*
X367898Y456052D01*
X367839Y455614D01*
X367768Y455177D01*
X367687Y454742D01*
X367596Y454309D01*
X367494Y453878D01*
X367381Y453450D01*
X367257Y453025D01*
X367124Y452603D01*
X366980Y452185D01*
X366826Y451770D01*
X366661Y451359D01*
X366487Y450952D01*
X366303Y450549D01*
X366108Y450152D01*
X365905Y449759D01*
X365691Y449371D01*
X365468Y448989D01*
X365236Y448612D01*
X364995Y448241D01*
X364744Y447876D01*
X364485Y447517D01*
X364217Y447165D01*
X363940Y446819D01*
X363656Y446481D01*
X363362Y446149D01*
X363061Y445825D01*
X362752Y445508D01*
X362435Y445199D01*
X362111Y444898D01*
X361779Y444604D01*
X361441Y444320D01*
X361095Y444043D01*
X360743Y443775D01*
X360384Y443516D01*
X360019Y443265D01*
X359648Y443024D01*
X359271Y442792D01*
X358889Y442569D01*
X358501Y442355D01*
X358108Y442152D01*
X357711Y441957D01*
X357308Y441773D01*
X356901Y441599D01*
X356490Y441434D01*
X356075Y441280D01*
X355657Y441136D01*
X355235Y441003D01*
X354810Y440879D01*
X354382Y440766D01*
X353951Y440664D01*
X353518Y440573D01*
X353083Y440492D01*
X352646Y440421D01*
X352208Y440362D01*
X351768Y440313D01*
X351327Y440275D01*
X350885Y440248D01*
X350443Y440231D01*
X350000Y440226D01*
X349557Y440231D01*
X349115Y440248D01*
X348673Y440275D01*
X348232Y440313D01*
X347792Y440362D01*
X347354Y440421D01*
X346917Y440492D01*
X346482Y440573D01*
X346049Y440664D01*
X345618Y440766D01*
X345190Y440879D01*
X344765Y441003D01*
X344343Y441136D01*
X343925Y441280D01*
X343510Y441434D01*
X343099Y441599D01*
X342692Y441773D01*
X342289Y441957D01*
X341892Y442152D01*
X341499Y442355D01*
X341111Y442569D01*
X340729Y442792D01*
X340352Y443024D01*
X339981Y443265D01*
X339616Y443516D01*
X339257Y443775D01*
X338905Y444043D01*
X338559Y444320D01*
X338221Y444604D01*
X337889Y444898D01*
X337565Y445199D01*
X337248Y445508D01*
X336939Y445825D01*
X336638Y446149D01*
X336344Y446481D01*
X336060Y446819D01*
X335783Y447165D01*
X335515Y447517D01*
X335256Y447876D01*
X335005Y448241D01*
X334764Y448612D01*
X334532Y448989D01*
X334309Y449371D01*
X334095Y449759D01*
X333892Y450152D01*
X333697Y450549D01*
X333513Y450952D01*
X333339Y451359D01*
X333174Y451770D01*
X333020Y452185D01*
X332876Y452603D01*
X332743Y453025D01*
X332619Y453450D01*
X332506Y453878D01*
X332404Y454309D01*
X332313Y454742D01*
X332232Y455177D01*
X332161Y455614D01*
X332102Y456052D01*
X332053Y456492D01*
X332015Y456933D01*
X331988Y457375D01*
X331971Y457817D01*
X331966Y458260D01*
D17*
X375400Y302685D03*
X350000Y302685D03*
X324600Y302685D03*
D18*
X324600Y319830D03*
X350000Y319830D03*
X375400Y319830D03*
D19*
X294501Y307008D02*
X294501Y301669D01*
X294501Y304338D02*
X278485Y304338D01*
X278485Y301669D02*
X278485Y307008D01*
X278485Y320591D02*
X281155Y323261D01*
X278485Y320591D02*
X278485Y315253D01*
X281155Y312583D01*
X291832Y312583D01*
X294501Y315253D01*
X294501Y320591D01*
X291832Y323261D01*
X283824Y328955D02*
X278485Y334294D01*
X294501Y334294D01*
X294501Y339632D02*
X294501Y328955D01*
M02*
