G04 EAGLE Gerber RS-274X export*
G75*
%MOMM*%
%FSLAX34Y34*%
%LPD*%
%INSoldermask Top*%
%IPPOS*%
%AMOC8*
5,1,8,0,0,1.08239X$1,22.5*%
G01*
%ADD10C,2.901600*%
%ADD11R,1.879600X1.879600*%
%ADD12C,1.879600*%
%ADD13C,1.609600*%
%ADD14P,1.539592X8X292.500000*%
%ADD15C,1.422400*%
%ADD16C,1.778000*%
%ADD17C,3.403600*%
%ADD18R,3.301600X1.601600*%


D10*
X35000Y35000D03*
X35000Y525000D03*
X615000Y525000D03*
X615000Y35000D03*
D11*
X83700Y512300D03*
D12*
X83700Y537700D03*
X109100Y512300D03*
X109100Y537700D03*
X134500Y512300D03*
X134500Y537700D03*
X159900Y512300D03*
X159900Y537700D03*
X185300Y512300D03*
X185300Y537700D03*
X210700Y512300D03*
X210700Y537700D03*
X236100Y512300D03*
X236100Y537700D03*
X261500Y512300D03*
X261500Y537700D03*
X286900Y512300D03*
X286900Y537700D03*
X312300Y512300D03*
X312300Y537700D03*
X337700Y512300D03*
X337700Y537700D03*
X363100Y512300D03*
X363100Y537700D03*
X388500Y512300D03*
X388500Y537700D03*
X413900Y512300D03*
X413900Y537700D03*
X439300Y512300D03*
X439300Y537700D03*
X464700Y512300D03*
X464700Y537700D03*
X490100Y512300D03*
X490100Y537700D03*
X515500Y512300D03*
X515500Y537700D03*
X540900Y512300D03*
X540900Y537700D03*
X566300Y512300D03*
X566300Y537700D03*
D13*
X107540Y427300D02*
X92460Y427300D01*
X92460Y452700D02*
X107540Y452700D01*
D14*
X190000Y427300D03*
X209050Y440000D03*
X190000Y452700D03*
D15*
X137300Y356604D02*
X137300Y343396D01*
X162700Y343396D02*
X162700Y356604D01*
D16*
X324600Y316782D02*
X324600Y300018D01*
X350000Y300018D02*
X350000Y316782D01*
X375400Y316782D02*
X375400Y300018D01*
D17*
X350000Y458260D03*
D18*
X250000Y470000D03*
X250000Y443000D03*
M02*
